<mxfile host="app.diagrams.net" modified="2022-11-11T08:33:20.220Z" agent="5.0 (Windows NT 10.0; Win64; x64) AppleWebKit/537.36 (KHTML, like Gecko) Chrome/107.0.0.0 Safari/537.36" etag="a00dOpxCAFzBno7W9Caj" version="20.5.3" type="github" pages="2">
  <diagram id="A-GsFA-6vnuBQk4Q9-Tm" name="Login">
    <mxGraphModel dx="1865" dy="547" grid="1" gridSize="10" guides="1" tooltips="1" connect="1" arrows="1" fold="1" page="1" pageScale="1" pageWidth="827" pageHeight="1169" math="0" shadow="0">
      <root>
        <mxCell id="0" />
        <mxCell id="1" parent="0" />
        <mxCell id="bRKHg4UI2Irz7XTdyYJ--1" value="" style="rounded=1;whiteSpace=wrap;html=1;" parent="1" vertex="1">
          <mxGeometry x="-720" y="30" width="250" height="450" as="geometry" />
        </mxCell>
        <mxCell id="bRKHg4UI2Irz7XTdyYJ--2" value="" style="ellipse;whiteSpace=wrap;html=1;aspect=fixed;flipV=0;align=center;fillColor=#d5e8d4;strokeColor=#82b366;strokeWidth=2;perimeterSpacing=0;opacity=50;shadow=0;sketch=0;" parent="1" vertex="1">
          <mxGeometry x="-645" y="140" width="100" height="100" as="geometry" />
        </mxCell>
        <mxCell id="bRKHg4UI2Irz7XTdyYJ--125" value="WELCOME" style="text;html=1;align=center;verticalAlign=middle;whiteSpace=wrap;rounded=0;shadow=0;sketch=0;strokeWidth=2;opacity=50;fontFamily=Verdana;fontStyle=1;fontColor=#009900;fontSize=15;" parent="1" vertex="1">
          <mxGeometry x="-645" y="60" width="100" height="40" as="geometry" />
        </mxCell>
        <mxCell id="bRKHg4UI2Irz7XTdyYJ--127" value="&lt;font face=&quot;Times New Roman&quot; style=&quot;font-size: 10px;&quot;&gt;AGREE AND CONTINUE&lt;/font&gt;" style="rounded=0;whiteSpace=wrap;html=1;shadow=0;sketch=0;strokeWidth=2;fontFamily=Verdana;fontSize=15;opacity=70;fillColor=#008A00;strokeColor=#009900;fontColor=#ffffff;fillStyle=auto;align=center;labelPosition=center;verticalLabelPosition=middle;verticalAlign=middle;imageVerticalAlign=middle;" parent="1" vertex="1">
          <mxGeometry x="-672.5" y="380" width="155" height="30" as="geometry" />
        </mxCell>
        <mxCell id="bRKHg4UI2Irz7XTdyYJ--128" value="" style="rounded=1;whiteSpace=wrap;html=1;shadow=0;sketch=0;fillStyle=auto;strokeWidth=1;fontFamily=Times New Roman;fontSize=10;fillColor=default;strokeColor=#000000;horizontal=1;verticalAlign=middle;" parent="1" vertex="1">
          <mxGeometry x="-420" y="30" width="250" height="450" as="geometry" />
        </mxCell>
        <mxCell id="bRKHg4UI2Irz7XTdyYJ--131" value="&lt;font style=&quot;font-size: 11px;&quot;&gt;Enter Your Phone Number&lt;/font&gt;" style="text;html=1;strokeColor=none;fillColor=none;align=center;verticalAlign=bottom;whiteSpace=wrap;rounded=0;fillStyle=auto;fontFamily=Verdana;fontColor=#00994D;fontStyle=1;fontSize=11;" parent="1" vertex="1">
          <mxGeometry x="-380" y="40" width="170" height="20" as="geometry" />
        </mxCell>
        <mxCell id="bRKHg4UI2Irz7XTdyYJ--134" value="" style="shape=table;startSize=0;container=1;collapsible=1;childLayout=tableLayout;fixedRows=1;rowLines=0;fontStyle=0;align=center;resizeLast=1;strokeColor=none;fillColor=none;collapsible=0;fillStyle=auto;fontFamily=Verdana;fontSize=11;fontColor=#00994D;left=1;separatorColor=none;" parent="1" vertex="1">
          <mxGeometry x="-392.5" y="100" width="195" height="20" as="geometry" />
        </mxCell>
        <mxCell id="bRKHg4UI2Irz7XTdyYJ--135" value="" style="shape=tableRow;horizontal=0;startSize=0;swimlaneHead=0;swimlaneBody=0;fillColor=none;collapsible=0;dropTarget=0;points=[[0,0.5],[1,0.5]];portConstraint=eastwest;top=0;left=0;right=0;bottom=1;fillStyle=auto;strokeColor=#000000;fontFamily=Verdana;fontSize=11;fontColor=#00994D;" parent="bRKHg4UI2Irz7XTdyYJ--134" vertex="1">
          <mxGeometry width="195" height="20" as="geometry" />
        </mxCell>
        <mxCell id="bRKHg4UI2Irz7XTdyYJ--136" value="ID" style="shape=partialRectangle;connectable=0;fillColor=none;top=0;left=0;bottom=0;right=0;fontStyle=1;overflow=hidden;fillStyle=auto;strokeColor=#000000;fontFamily=Verdana;fontSize=11;fontColor=#000000;" parent="bRKHg4UI2Irz7XTdyYJ--135" vertex="1">
          <mxGeometry width="30" height="20" as="geometry">
            <mxRectangle width="30" height="20" as="alternateBounds" />
          </mxGeometry>
        </mxCell>
        <mxCell id="bRKHg4UI2Irz7XTdyYJ--137" value="Indonesia" style="shape=partialRectangle;connectable=0;fillColor=none;top=0;left=0;bottom=0;right=0;align=center;spacingLeft=6;fontStyle=1;overflow=hidden;fillStyle=auto;strokeColor=#00994D;fontFamily=Verdana;fontSize=11;fontColor=#000000;" parent="bRKHg4UI2Irz7XTdyYJ--135" vertex="1">
          <mxGeometry x="30" width="165" height="20" as="geometry">
            <mxRectangle width="165" height="20" as="alternateBounds" />
          </mxGeometry>
        </mxCell>
        <mxCell id="bRKHg4UI2Irz7XTdyYJ--142" style="edgeStyle=orthogonalEdgeStyle;rounded=0;orthogonalLoop=1;jettySize=auto;html=1;exitX=0.5;exitY=1;exitDx=0;exitDy=0;fontFamily=Verdana;fontSize=11;fontColor=#00994D;" parent="1" source="bRKHg4UI2Irz7XTdyYJ--1" target="bRKHg4UI2Irz7XTdyYJ--1" edge="1">
          <mxGeometry relative="1" as="geometry" />
        </mxCell>
        <mxCell id="bRKHg4UI2Irz7XTdyYJ--144" value="" style="shape=table;startSize=0;container=1;collapsible=1;childLayout=tableLayout;fixedRows=1;rowLines=0;fontStyle=0;align=center;resizeLast=1;strokeColor=none;fillColor=none;collapsible=0;fillStyle=auto;fontFamily=Verdana;fontSize=11;fontColor=#00994D;" parent="1" vertex="1">
          <mxGeometry x="-392.5" y="140" width="195" height="20" as="geometry" />
        </mxCell>
        <mxCell id="bRKHg4UI2Irz7XTdyYJ--145" value="" style="shape=tableRow;horizontal=0;startSize=0;swimlaneHead=0;swimlaneBody=0;fillColor=none;collapsible=0;dropTarget=0;points=[[0,0.5],[1,0.5]];portConstraint=eastwest;top=0;left=0;right=0;bottom=1;fillStyle=auto;strokeColor=#000000;fontFamily=Verdana;fontSize=11;fontColor=#00994D;" parent="bRKHg4UI2Irz7XTdyYJ--144" vertex="1">
          <mxGeometry width="195" height="20" as="geometry" />
        </mxCell>
        <mxCell id="bRKHg4UI2Irz7XTdyYJ--146" value="+62" style="shape=partialRectangle;connectable=0;fillColor=none;top=0;left=0;bottom=0;right=0;fontStyle=1;overflow=hidden;fillStyle=auto;strokeColor=#000000;fontFamily=Verdana;fontSize=11;fontColor=#000000;" parent="bRKHg4UI2Irz7XTdyYJ--145" vertex="1">
          <mxGeometry width="30" height="20" as="geometry">
            <mxRectangle width="30" height="20" as="alternateBounds" />
          </mxGeometry>
        </mxCell>
        <mxCell id="bRKHg4UI2Irz7XTdyYJ--147" value="81-XXXX-XXXX-XXX" style="shape=partialRectangle;connectable=0;fillColor=none;top=0;left=0;bottom=0;right=0;align=center;spacingLeft=6;fontStyle=1;overflow=hidden;fillStyle=auto;strokeColor=#000000;fontFamily=Verdana;fontSize=11;fontColor=#000000;" parent="bRKHg4UI2Irz7XTdyYJ--145" vertex="1">
          <mxGeometry x="30" width="165" height="20" as="geometry">
            <mxRectangle width="165" height="20" as="alternateBounds" />
          </mxGeometry>
        </mxCell>
        <mxCell id="bRKHg4UI2Irz7XTdyYJ--148" value="We will send an SMS message to verify your phone number" style="text;html=1;strokeColor=none;fillColor=none;align=center;verticalAlign=middle;whiteSpace=wrap;rounded=0;fillStyle=auto;fontFamily=Verdana;fontSize=11;fontColor=#00994D;" parent="1" vertex="1">
          <mxGeometry x="-385" y="185" width="180" height="10" as="geometry" />
        </mxCell>
        <mxCell id="bRKHg4UI2Irz7XTdyYJ--151" value="" style="triangle;whiteSpace=wrap;html=1;fillStyle=auto;strokeColor=#005700;fontFamily=Verdana;fontSize=11;fillColor=#000000;rotation=90;fontColor=#ffffff;" parent="1" vertex="1">
          <mxGeometry x="-210" y="105" width="8.75" height="10" as="geometry" />
        </mxCell>
        <mxCell id="bRKHg4UI2Irz7XTdyYJ--152" value="&lt;font color=&quot;#ffffff&quot;&gt;NEXT&lt;/font&gt;" style="rounded=0;whiteSpace=wrap;html=1;fillStyle=auto;strokeColor=#009900;fontFamily=Verdana;fontSize=11;fillColor=#008A00;opacity=70;strokeWidth=2;" parent="1" vertex="1">
          <mxGeometry x="-346.25" y="380" width="102.5" height="30" as="geometry" />
        </mxCell>
        <mxCell id="bRKHg4UI2Irz7XTdyYJ--155" value="" style="rounded=1;whiteSpace=wrap;html=1;" parent="1" vertex="1">
          <mxGeometry x="-120" y="30" width="250" height="450" as="geometry" />
        </mxCell>
        <mxCell id="bRKHg4UI2Irz7XTdyYJ--156" value="Verify" style="text;html=1;strokeColor=none;fillColor=none;align=center;verticalAlign=bottom;whiteSpace=wrap;rounded=0;fillStyle=auto;fontFamily=Verdana;fontColor=#00994D;fontStyle=1;fontSize=11;" parent="1" vertex="1">
          <mxGeometry x="-80" y="40" width="170" height="20" as="geometry" />
        </mxCell>
        <mxCell id="bRKHg4UI2Irz7XTdyYJ--157" value="&lt;font color=&quot;#009900&quot; style=&quot;font-size: 11px;&quot; face=&quot;Verdana&quot;&gt;Waiting to automatically detect an SMS to +62-XX-XXXX-XXXX-XXX&lt;/font&gt;" style="text;html=1;strokeColor=none;fillColor=none;align=center;verticalAlign=middle;whiteSpace=wrap;rounded=0;" parent="1" vertex="1">
          <mxGeometry x="-85" y="80" width="195" height="35" as="geometry" />
        </mxCell>
        <mxCell id="bRKHg4UI2Irz7XTdyYJ--160" value="" style="line;strokeWidth=1;html=1;fontFamily=Verdana;fontSize=11;" parent="1" vertex="1">
          <mxGeometry x="-67.5" y="145" width="160" height="10" as="geometry" />
        </mxCell>
        <mxCell id="bRKHg4UI2Irz7XTdyYJ--161" value="&lt;b&gt;&lt;font style=&quot;font-size: 16px;&quot;&gt;- - - - - -&amp;nbsp;&lt;/font&gt;&lt;/b&gt;" style="text;html=1;strokeColor=none;fillColor=none;align=center;verticalAlign=middle;whiteSpace=wrap;rounded=0;strokeWidth=1;fontFamily=Verdana;fontSize=11;" parent="1" vertex="1">
          <mxGeometry x="-37.5" y="120" width="100" height="30" as="geometry" />
        </mxCell>
        <mxCell id="bRKHg4UI2Irz7XTdyYJ--163" value="" style="html=1;verticalLabelPosition=bottom;align=center;labelBackgroundColor=#ffffff;verticalAlign=top;strokeWidth=2;shadow=0;dashed=0;shape=mxgraph.ios7.icons.message;fontFamily=Verdana;fontSize=16;flipH=1;strokeColor=#314354;fillColor=#647687;fontColor=#ffffff;opacity=30;" parent="1" vertex="1">
          <mxGeometry x="-90" y="175" width="40" height="25" as="geometry" />
        </mxCell>
        <mxCell id="bRKHg4UI2Irz7XTdyYJ--164" value="" style="shape=image;html=1;verticalAlign=top;verticalLabelPosition=bottom;labelBackgroundColor=#ffffff;imageAspect=0;aspect=fixed;image=https://cdn0.iconfinder.com/data/icons/google-material-design-3-0/48/ic_call_48px-128.png;strokeColor=#009900;strokeWidth=1;fontFamily=Verdana;fontSize=16;opacity=30;" parent="1" vertex="1">
          <mxGeometry x="-90" y="210" width="40" height="40" as="geometry" />
        </mxCell>
        <mxCell id="bRKHg4UI2Irz7XTdyYJ--165" value="&lt;font style=&quot;font-size: 10px;&quot;&gt;Resend SMS&lt;/font&gt;" style="text;html=1;strokeColor=none;fillColor=none;align=center;verticalAlign=middle;whiteSpace=wrap;rounded=0;strokeWidth=1;fontFamily=Verdana;fontSize=16;opacity=30;sketch=0;" parent="1" vertex="1">
          <mxGeometry x="-37.5" y="175" width="75" height="20" as="geometry" />
        </mxCell>
        <mxCell id="bRKHg4UI2Irz7XTdyYJ--166" value="&lt;font style=&quot;font-size: 11px;&quot;&gt;Call me&lt;/font&gt;" style="text;html=1;strokeColor=none;fillColor=none;align=center;verticalAlign=middle;whiteSpace=wrap;rounded=0;sketch=0;strokeWidth=1;fontFamily=Verdana;fontSize=10;opacity=30;" parent="1" vertex="1">
          <mxGeometry x="-37.5" y="215" width="60" height="30" as="geometry" />
        </mxCell>
      </root>
    </mxGraphModel>
  </diagram>
  <diagram id="6HNgSgjPMyDBJ105fxZ5" name="Halaman-2">
    <mxGraphModel dx="1038" dy="489" grid="1" gridSize="11" guides="1" tooltips="1" connect="1" arrows="1" fold="1" page="1" pageScale="1" pageWidth="3300" pageHeight="4681" backgroundImage="{&quot;src&quot;:&quot;data:image/png;base64,iVBORw0KGgoAAAANSUhEUgAAAgAAAAIACAQAAABecRxxAAAReElEQVR42u3d72vV5R/H8dd+KNmmm78CSUOJthHdMS1SiWiNTM0UI5oUFpr9HUEERhQNuhV0IynKe4E3W0mFggvRWqLb17xjYf7C/dSZ2znfG3Fgyrbza+e8rutcz8f77m68ruvwfp/rfPY5nyMBAAAAAAAAAAAAAAAAAAAAAAAAAAAAAAAAAAAAAAAAAAAAAAAAAAAAAAAAAAAAAAAAAAAAAAAAAAAAAAAAAAAAAAAAAAAAABCfOncAVFGL2tSuDrVpjZrUpKVqkjSumxrXuC5pUOc1oEENu4OiWhgAKWjWM+pSl9arvqC/v6he9apXN93BAZSjVe/qZ00qW0JN6icdVKt7CQCKV68dOqLbJbX+9LqtI9pe4MkBQADqtVOnym796fWH9qnRvSwA+TTqHV2Y1+bP1f90gCEAhGyjfq1I8+fqjLa4lwhgJsvUo6mKtn9WWWV0WA+5lwrgXrt1o+LNn6vr2uVeLoCcRh1Spmrt/985oEcL3csGIK1TX1WbP1cntda9dCB1G3XV0v5ZZXVDm9zLB1LWqRFb+2eV1Zhecm8BkKo9mrC2f1ZZ3dFe9zYAKdpbhX/6FVJT6nZvBZCaFwJ498/Vv9rq3g4gJU9p1N7202ucy4FAtazTNXvL319X+acgUA0LdMLe7jNVH7cGAZX3qb3VZ6uP3VsD1LqXq3zTbzGV0W739gC1bGUVv/JTSl3XCvcWoRgN7gAoymfa7I4wpwe1TEfdIYDatCXg43+upviHIFAJjTpjb+9C6nceHAbMv4P21i609ru3CoXih0Fi0aBzeswdokB/qkOT7hAoBM97j0V3NO0vParX3BGAWlKnfvvBvpg6y1tLHHiZ4rBdT7gjFOVxvh8YBwZAHN5yByjaPncAFIKLgDFo0WUtcoco0oRWacgdAvlwAohBd3TtLz2gV90RkB8DIAZvuAOU5E13AOTHR4DwtehGlN/ZmNRyjbhDYG6cAML3XJTtLzXqWXcE5MMACN/z7gAJJk8GAyB8ne4ACSZPBtcAQteim9G+Shm1atQdAnPhBBC69mjbX6pXmzsC5sYACF27O0DC6RPAAAhd3C0Ud/oEMABCF3cLxZ0+AQyA0D3sDlCW1e4AmBsDIHRL3AHKstgdAHNjAISu2R2gLAyAwDEAQhd3C8WdPgEMgNBxAkAFMQCAhDEAQjfmDlAWbgQOHAMgdHG3UNzpE8AACB0nAFQQAyB0cT9ThwEQOAZA6P52ByjLX+4AmBsDIHQD7gAJp08AAyB0cbdQ3OkTwAAIXdwtFHf6BMT7tJlULNFQtK8SjwQLHieA0I2o3x2hZL/R/qFjAITvR3eAkv3gDoB8GADhO+YOkGDyZMT66TIl/DQYKoYTQPiGddwdoSS/0P7hYwDE4Gt3gJJ85Q6A/PgIEIMWXdYid4giTWiVhtwhkA8ngBgM66g7QtG+o/1jwACIw5fuAEU77A4A1I469SsbUZ3lrSUOvExxyOqQO0JR3lfGHQGF4CJgLBp0To+5QxTogjo05Q6BQnACiMWUPnRHKNgHtD8w3xp02v7ZvpA6FeV9i0DwntaUvb3z1ZQ2ubcJqFVf2Bs8X33u3iKgdq3QdXuLz1XXtNy9RUAt26GMvc1nq4x2ubcHqHWf2Bt9tvrIvTVA7VugE/ZWn6lOaqF7a4AUrNVVe7vfX1f0iHtbgFRs1Ii95afXiJ50bwmQkk5N2Ns+V3f0ons7gNR0B3Jb0JRed28FkKI9um1v/zvqdm8DkKpODVvbf1Rb3VsApGyDrtja/x9tcC8fSN0aHbe0f5/WuZcOQGrUe1W+IJhRD7f9AOF4pYpfE7qmne7lArjXUvVU4RyQ0WGtdC8VwEw2qK+i7X9am91LBDC7Bu3XYEWaf0Bv87AvIHz12qlT89r8/dqnRveyABSqTtv0rW6V3fq39I228fh4IEYtOqBjultS69/VMe1Xi3sJqCQmewqatEld6tL6An8H4qJ61avv+XnP2scASMlitatNHWrXajWrWa1qljSmIY1pTJc0qPMa0KBG3UEBAAAAAAAAAAAAAAAAAAAAAAAAAAAAAAAAAAAAAAAAAAAAAAAAAAAAAAAAAAAAAAAAAAAAAAAAAAAAAAAAAAAAAAAAAAAAAAAAAAAAAAAAAAAAAAAAAAAAAAAAAAAAAEBM6twBUEUtalO7OtSmNWpSk5aqSdK4bmpc47qkQZ3XgAY17A6KamEApKBZz6hLXVqv+oL+/qJ61ate3XQHB1COVr2rnzWpbAk1qZ90UK3uJQAoXr126Ihul9T60+u2jmh7gScHAAGo106dKrv1p9cf2qdG97IA5NOod3RhXps/V//TAYYAELKN+rUizZ+rM9riXiKAmSxTj6Yq2v5ZZZXRYT3kXiqAe+3WjYo3f66ua5d7uQByGnVImaq1/3/ngB4tdC8bgLROfVVt/lyd1Fr30oHUbdRVS/tnldUNbXIvH0hZp0Zs7Z9VVmN6yb0FQKr2aMLa/llldUd73dsApGhvFf7pV0hNqdu9FUBqXgjg3T9X/2qrezuAlDylUXvbT69xLgcC1bJO1+wtf39d5Z+CQDUs0Al7u89UfdwaBFTep/ZWn60+dm8NUOtervJNv8VURrvd2wPUspVV/MpPKXVdK9xbhGI0uAOgKJ9pszvCnB7UMh11hwBq05aAj/+5muIfgkAlNOqMvb0Lqd95cBgw/w7aW7vQ2u/eKhSKHwaJRYPO6TF3iAL9qQ5NukOgEDzvPRbd0bS/9Khec0cAakmd+u0H+2LqLG8tceBlisN2PeGOUJTH+X5gHBgAcXjLHaBo+9wBUAguAsagRZe1yB2iSBNapSF3COTDCSAG3dG1v/SAXnVHQH4MgBi84Q5QkjfdAZAfHwHC16IbUX5nY1LLNeIOgblxAgjfc1G2v9SoZ90RkA8DIHzPuwMkmDwZDIDwdboDJJg8GVwDCF2Lbkb7KmXUqlF3CMyFE0Do2qNtf6lebe4ImBsDIHTt7gAJp08AAyB0cbdQ3OkTwAAIXdwtFHf6BDAAQvewO0BZVrsDYG4MgNAtcQcoy2J3AMyNARC6ZneAsjAAAscACF3cLRR3+gQwAELHCQAVxAAAEsYACN2YO0BZuBE4cAyA0MXdQnGnTwADIHScAFBBDIDQxf1MHQZA4BgAofvbHaAsf7kDYG4MgNANuAMknD4BDIDQxd1CcadPAAMgdHG3UNzpExDv02ZSsURD0b5KPBIseJwAQjeifneEkv1G+4eOARC+H90BSvaDOwDyYQCE75g7QILJkxHrp8uU8NNgqBhOAOEb1nF3hJL8QvuHjwEQg6/dAUrylTsA8uMjQAxadFmL3CGKNKFVGnKHQD6cAGIwrKPuCEX7jvaPAQMgDl+6AxTtsDsAUDvq1K9sRHWWt5Y48DLFIatD7ghFeV8ZdwQUgouAsWjQOT3mDlGgC+rQlDsECsEJIBZT+tAdoWAf0P7AfGvQaftn+0LqVJT3LQLBe1pT9vbOV1Pa5N4moFZ9YW/wfPW5e4uA2rVC1+0tPldd03L3FgG1bIcy9jafrTLa5d4eoNZ9Ym/02eoj99YAtW+BTthbfaY6qYXurQFSsFZX7e1+f13RI+5tAVKxUSP2lp9eI3rSvSVASjo1YW/7XN3Ri+7tAFLTHchtQVN63b0VQIr26La9/e+o270NQKo6NWxt/1FtdW8BkLINumJr/3+0wb18IHVrdNzS/n1a5146AKlR71X5gmBGPdz2A4TjlSp+TeiadrqXC+BeS9VThXNARoe10r1UADPZoL6Ktv9pbXYvEcDsGrRfgxVp/gG9zcO+gPDVa6dOzWvz92ufGt3LAlCoOm3Tt7pVduvf0jfaxuPjgRi16ICO6W5JrX9Xx7RfLe4loJKY7Clo0iZ1qUvrC/wdiIvqVa++5+c9ax8DICWL1a42dahdq9WsZrWqWdKYhjSmMV3SoM5rQIMadQcFAAAAAAAAAAAAAAAAAAAAAAAAAAAAAAAAAAAAAAAAAAAAAAAAAAAAAAAAAAAAAAAAAAAAAAAAAAAAAAAAAAAAAAAAAAAAAAAAAAAAAAAAAAAAAAAAAAAAAAAAAAAAAAAxqXMHQBW1qE3t6lCb1qhJTVqqJknjuqlxjeuSBnVeAxrUsDsoqoUBkIJmPaMudWm96gv6+4vqVa96ddMdHEA5WvWuftaksiXUpH7SQbW6lwCgePXaoSO6XVLrT6/bOqLtBZ4cAASgXjt1quzWn15/aJ8a3csCkE+j3tGFeW3+XP1PBxgCQMg26teKNH+uzmiLe4kAZrJMPZqqaPtnlVVGh/WQe6kA7rVbNyre/Lm6rl3u5QLIadQhZarW/v+dA3q00L1sANI69VW1+XN1UmvdSwdSt1FXLe2fVVY3tMm9fCBlnRqxtX9WWY3pJfcWAKnaowlr+2eV1R3tdW8DkKK9VfinXyE1pW73VgCpeSGAd/9c/aut7u0AUvKURu1tP73GuRwIVMs6XbO3/P11lX8KAtWwQCfs7T5T9XFrEFB5n9pbfbb62L01QK17uco3/RZTGe12bw9Qy1ZW8Ss/pdR1rXBvEYrR4A6Aonymze4Ic3pQy3TUHQKoTVsCPv7naop/CAKV0Kgz9vYupH7nwWHA/Dtob+1Ca797q1AofhgkFg06p8fcIQr0pzo06Q6BQvC891h0R9P+0qN6zR0BqCV16rcf7Iups7y1xIGXKQ7b9YQ7QlEe5/uBcWAAxOEtd4Ci7XMHQCG4CBiDFl3WIneIIk1olYbcIZAPJ4AYdEfX/tIDetUdAfkxAGLwhjtASd50B0B+fAQIX4tuRPmdjUkt14g7BObGCSB8z0XZ/lKjnnVHQD4MgPA97w6QYPJkMADC1+kOkGDyZHANIHQtuhntq5RRq0bdITAXTgCha4+2/aV6tbkjYG4MgNC1uwMknD4BDIDQxd1CcadPAAMgdHG3UNzpE8AACN3D7gBlWe0OgLkxAEK3xB2gLIvdATA3BkDomt0BysIACBwDIHRxt1Dc6RPAAAgdJwBUEAMASBgDIHRj7gBl4UbgwDEAQhd3C8WdPgEMgNBxAkAFMQBCF/czdRgAgWMAhO5vd4Cy/OUOgLkxAEI34A6QcPoEMABCF3cLxZ0+AQyA0MXdQnGnT0C8T5tJxRINRfsq8Uiw4HECCN2I+t0RSvYb7R86BkD4fnQHKNkP7gDIhwEQvmPuAAkmT0asny5Twk+DoWI4AYRvWMfdEUryC+0fPgZADL52ByjJV+4AyI+PADFo0WUtcoco0oRWacgdAvlwAojBsI66IxTtO9o/BgyAOHzpDlC0w+4AQO2oU7+yEdVZ3lriwMsUh6wOuSMU5X1l3BFQCC4CxqJB5/SYO0SBLqhDU+4QKAQngFhM6UN3hIJ9QPsD861Bp+2f7QupU1HetwgE72lN2ds7X01pk3ubgFr1hb3B89Xn7i0CatcKXbe3+Fx1TcvdWwTUsh3K2Nt8tspol3t7gFr3ib3RZ6uP3FsD1L4FOmFv9ZnqpBa6twZIwVpdtbf7/XVFj7i3BUjFRo3YW356jehJ95YAKenUhL3tc3VHL7q3A0hNdyC3BU3pdfdWACnao9v29r+jbvc2AKnq1LC1/Ue11b0FQMo26Iqt/f/RBvfygdSt0XFL+/dpnXvpAKRGvVflC4IZ9XDbDxCOV6r4NaFr2uleLoB7LVVPFc4BGR3WSvdSAcxkg/oq2v6ntdm9RACza9B+DVak+Qf0Ng/7AsJXr506Na/N3699anQvC0Ch6rRN3+pW2a1/S99oG4+PB2LUogM6prsltf5dHdN+tbiXgEpisqegSZvUpS6tL/B3IC6qV736np/3rH0MgJQsVrva1KF2rVazmtWqZkljGtKYxnRJgzqvAQ1q1B0UAAAAAAAAAAAAAAAAAAAAAAAAAAAAAAAAAAAAAAAAAAAAAAAAAAAAAAAAAAAAAAAAAAAAAAAAAAAAAAAAAAAAAAAAAAAAAABgdv8H4yRVtg+gjgwAAAAASUVORK5CYII=&quot;,&quot;width&quot;:&quot;512&quot;,&quot;height&quot;:&quot;512&quot;,&quot;x&quot;:0,&quot;y&quot;:0}" math="0" shadow="0">
      <root>
        <mxCell id="0" />
        <mxCell id="1" parent="0" />
        <mxCell id="v4PWzXvCC2G0M0-kPm0J-1" value="" style="rounded=1;whiteSpace=wrap;html=1;gradientColor=none;gradientDirection=north;strokeColor=default;fillColor=#FFFFFF;fillStyle=auto;glass=0;shadow=0;sketch=0;container=0;verticalAlign=middle;imageAspect=1;movable=1;resizable=1;rotatable=1;deletable=1;editable=1;connectable=1;" parent="1" vertex="1">
          <mxGeometry x="70" y="40" width="290" height="490" as="geometry" />
        </mxCell>
        <mxCell id="AZF40h7yky4wnvu_V2AI-4" value="" style="line;strokeWidth=1;fillColor=none;align=left;verticalAlign=middle;spacingTop=-1;spacingLeft=3;spacingRight=3;rotatable=0;labelPosition=right;points=[];portConstraint=eastwest;strokeColor=inherit;fillStyle=auto;fontFamily=Verdana;fontSize=11;fontColor=#00994D;" parent="1" vertex="1">
          <mxGeometry x="70" y="120" width="290" height="8" as="geometry" />
        </mxCell>
        <mxCell id="AZF40h7yky4wnvu_V2AI-10" value="&lt;font style=&quot;font-size: 10px;&quot;&gt;CHAT&lt;/font&gt;" style="strokeWidth=1;html=1;shadow=0;dashed=0;shape=mxgraph.android.spinner2;align=center;fillColor=#33b5e5;strokeColor=#33b5e5;verticalAlign=bottom" parent="1" vertex="1">
          <mxGeometry x="120" y="110" width="70" height="10" as="geometry" />
        </mxCell>
        <mxCell id="iHsdo4Bu1vToOxYBje5i-18" style="edgeStyle=orthogonalEdgeStyle;rounded=0;orthogonalLoop=1;jettySize=auto;html=1;entryX=0.007;entryY=0.12;entryDx=0;entryDy=0;entryPerimeter=0;fontFamily=Times New Roman;" edge="1" parent="1" source="AZF40h7yky4wnvu_V2AI-11" target="AZF40h7yky4wnvu_V2AI-65">
          <mxGeometry relative="1" as="geometry" />
        </mxCell>
        <mxCell id="AZF40h7yky4wnvu_V2AI-11" value="" style="html=1;verticalLabelPosition=bottom;align=center;labelBackgroundColor=#ffffff;verticalAlign=top;strokeWidth=2;strokeColor=#000000;shadow=0;dashed=0;shape=mxgraph.ios7.icons.looking_glass;" parent="1" vertex="1">
          <mxGeometry x="290" y="60" width="20" height="20" as="geometry" />
        </mxCell>
        <mxCell id="AZF40h7yky4wnvu_V2AI-12" value="&lt;font style=&quot;font-size: 10px;&quot;&gt;STATUS&lt;/font&gt;" style="strokeWidth=1;html=1;shadow=0;dashed=0;shape=mxgraph.android.spinner2;align=center;fillColor=#FFFFFF;strokeColor=#33b5e5;verticalAlign=bottom" parent="1" vertex="1">
          <mxGeometry x="200" y="110" width="70" height="10" as="geometry" />
        </mxCell>
        <mxCell id="AZF40h7yky4wnvu_V2AI-13" value="&lt;font style=&quot;font-size: 10px;&quot;&gt;PANGGILAN&lt;/font&gt;" style="strokeWidth=1;html=1;shadow=0;dashed=0;shape=mxgraph.android.spinner2;align=center;fillColor=#FFFFFF;strokeColor=#33b5e5;verticalAlign=bottom" parent="1" vertex="1">
          <mxGeometry x="280" y="110" width="70" height="10" as="geometry" />
        </mxCell>
        <mxCell id="AZF40h7yky4wnvu_V2AI-14" value="" style="sketch=0;outlineConnect=0;fontColor=#232F3E;gradientColor=none;fillColor=#000000;strokeColor=none;dashed=0;verticalLabelPosition=bottom;verticalAlign=top;align=center;html=1;fontSize=12;fontStyle=0;aspect=fixed;pointerEvents=1;shape=mxgraph.aws4.camera2;shadow=0;" parent="1" vertex="1">
          <mxGeometry x="80" y="100" width="25.16" height="20" as="geometry" />
        </mxCell>
        <mxCell id="AZF40h7yky4wnvu_V2AI-49" value="" style="rounded=0;whiteSpace=wrap;html=1;shadow=0;glass=0;sketch=0;fillStyle=auto;strokeColor=none;fontSize=10;fillColor=none;gradientColor=none;gradientDirection=north;image=https://cdn.icon-icons.com/icons2/2954/PNG/512/three_dots_vertical_menu_icon_184615.png;" parent="1" vertex="1">
          <mxGeometry x="316" y="53.5" width="34" height="33" as="geometry" />
        </mxCell>
        <mxCell id="AZF40h7yky4wnvu_V2AI-56" value="" style="ellipse;whiteSpace=wrap;html=1;aspect=fixed;shadow=0;glass=0;sketch=0;fillStyle=auto;strokeColor=#000000;fontSize=11;fillColor=default;gradientColor=none;gradientDirection=north;" parent="1" vertex="1">
          <mxGeometry x="80" y="132" width="44" height="44" as="geometry" />
        </mxCell>
        <mxCell id="AZF40h7yky4wnvu_V2AI-61" value="" style="shape=actor;whiteSpace=wrap;html=1;rounded=0;shadow=0;glass=0;sketch=0;fillStyle=auto;strokeColor=#000000;fontSize=11;fillColor=#000000;gradientColor=none;gradientDirection=north;" parent="1" vertex="1">
          <mxGeometry x="86.79" y="137.5" width="30.42" height="33" as="geometry" />
        </mxCell>
        <mxCell id="AZF40h7yky4wnvu_V2AI-62" value="&lt;font size=&quot;1&quot; style=&quot;&quot; face=&quot;Comic Sans MS&quot;&gt;&lt;b style=&quot;font-size: 16px;&quot;&gt;Person 1&lt;/b&gt;&lt;/font&gt;" style="text;html=1;strokeColor=none;fillColor=none;align=center;verticalAlign=middle;whiteSpace=wrap;rounded=0;shadow=0;glass=0;sketch=0;fillStyle=auto;fontSize=11;" parent="1" vertex="1">
          <mxGeometry x="124" y="132" width="79" height="33" as="geometry" />
        </mxCell>
        <mxCell id="AZF40h7yky4wnvu_V2AI-65" value="" style="rounded=1;whiteSpace=wrap;html=1;gradientColor=none;gradientDirection=north;strokeColor=default;fillColor=#FFFFFF;fillStyle=auto;glass=0;shadow=0;sketch=0;container=0;movable=0;resizable=0;rotatable=0;deletable=0;editable=0;connectable=0;" parent="1" vertex="1">
          <mxGeometry x="440" y="40" width="290" height="490" as="geometry" />
        </mxCell>
        <mxCell id="AZF40h7yky4wnvu_V2AI-66" value="" style="line;strokeWidth=1;fillColor=none;align=left;verticalAlign=middle;spacingTop=-1;spacingLeft=3;spacingRight=3;rotatable=0;labelPosition=right;points=[];portConstraint=eastwest;strokeColor=inherit;fillStyle=auto;fontFamily=Verdana;fontSize=11;fontColor=#00994D;" parent="1" vertex="1">
          <mxGeometry x="440" y="120" width="290" height="8" as="geometry" />
        </mxCell>
        <mxCell id="AZF40h7yky4wnvu_V2AI-67" value="&lt;font style=&quot;font-size: 10px;&quot;&gt;CHAT&lt;/font&gt;" style="strokeWidth=1;html=1;shadow=0;dashed=0;shape=mxgraph.android.spinner2;align=center;fillColor=#33B5E5;strokeColor=#33b5e5;verticalAlign=bottom" parent="1" vertex="1">
          <mxGeometry x="490" y="110" width="70" height="10" as="geometry" />
        </mxCell>
        <mxCell id="AZF40h7yky4wnvu_V2AI-69" value="&lt;font style=&quot;font-size: 10px;&quot;&gt;STATUS&lt;/font&gt;" style="strokeWidth=1;html=1;shadow=0;dashed=0;shape=mxgraph.android.spinner2;align=center;fillColor=#FFFFFF;strokeColor=#33b5e5;verticalAlign=bottom" parent="1" vertex="1">
          <mxGeometry x="570" y="110" width="70" height="10" as="geometry" />
        </mxCell>
        <mxCell id="AZF40h7yky4wnvu_V2AI-70" value="&lt;font style=&quot;font-size: 10px;&quot;&gt;PANGGILAN&lt;/font&gt;" style="strokeWidth=1;html=1;shadow=0;dashed=0;shape=mxgraph.android.spinner2;align=center;fillColor=#FFFFFF;strokeColor=#33b5e5;verticalAlign=bottom" parent="1" vertex="1">
          <mxGeometry x="650" y="110" width="70" height="10" as="geometry" />
        </mxCell>
        <mxCell id="AZF40h7yky4wnvu_V2AI-71" value="" style="sketch=0;outlineConnect=0;fontColor=#232F3E;gradientColor=none;fillColor=#000000;strokeColor=none;dashed=0;verticalLabelPosition=bottom;verticalAlign=top;align=center;html=1;fontSize=12;fontStyle=0;aspect=fixed;pointerEvents=1;shape=mxgraph.aws4.camera2;shadow=0;" parent="1" vertex="1">
          <mxGeometry x="450" y="100" width="25.16" height="20" as="geometry" />
        </mxCell>
        <mxCell id="AZF40h7yky4wnvu_V2AI-77" value="" style="ellipse;whiteSpace=wrap;html=1;aspect=fixed;shadow=0;glass=0;sketch=0;fillStyle=auto;strokeColor=#000000;fontSize=11;fillColor=default;gradientColor=none;gradientDirection=north;" parent="1" vertex="1">
          <mxGeometry x="80" y="187" width="44" height="44" as="geometry" />
        </mxCell>
        <mxCell id="AZF40h7yky4wnvu_V2AI-76" value="" style="shape=actor;whiteSpace=wrap;html=1;rounded=0;shadow=0;glass=0;sketch=0;fillStyle=auto;strokeColor=#000000;fontSize=11;fillColor=#000000;gradientColor=none;gradientDirection=north;" parent="1" vertex="1">
          <mxGeometry x="86.79000000000002" y="192.5" width="30.42" height="33" as="geometry" />
        </mxCell>
        <mxCell id="AZF40h7yky4wnvu_V2AI-83" value="&lt;font size=&quot;1&quot; style=&quot;&quot; face=&quot;Comic Sans MS&quot;&gt;&lt;b style=&quot;font-size: 16px;&quot;&gt;Person 2&lt;/b&gt;&lt;/font&gt;" style="text;html=1;strokeColor=none;fillColor=none;align=center;verticalAlign=middle;whiteSpace=wrap;rounded=0;shadow=0;glass=0;sketch=0;fillStyle=auto;fontSize=11;" parent="1" vertex="1">
          <mxGeometry x="124" y="192.5" width="79" height="33" as="geometry" />
        </mxCell>
        <mxCell id="iHsdo4Bu1vToOxYBje5i-1" value="" style="rounded=0;whiteSpace=wrap;html=1;fillColor=#FFFFFF;movable=0;resizable=0;rotatable=0;deletable=0;editable=0;connectable=0;" vertex="1" parent="1">
          <mxGeometry x="473" y="57" width="231" height="26" as="geometry" />
        </mxCell>
        <mxCell id="iHsdo4Bu1vToOxYBje5i-2" value="&lt;b&gt;Cari...&lt;/b&gt;" style="text;html=1;strokeColor=none;fillColor=none;align=center;verticalAlign=middle;whiteSpace=wrap;rounded=0;fontFamily=Helvetica;" vertex="1" parent="1">
          <mxGeometry x="484.15999999999997" y="56.5" width="85.84" height="30" as="geometry" />
        </mxCell>
        <mxCell id="iHsdo4Bu1vToOxYBje5i-61" style="edgeStyle=orthogonalEdgeStyle;rounded=0;orthogonalLoop=1;jettySize=auto;html=1;fontFamily=Times New Roman;" edge="1" parent="1" source="iHsdo4Bu1vToOxYBje5i-3" target="iHsdo4Bu1vToOxYBje5i-60">
          <mxGeometry relative="1" as="geometry" />
        </mxCell>
        <mxCell id="iHsdo4Bu1vToOxYBje5i-3" value="" style="ellipse;whiteSpace=wrap;html=1;aspect=fixed;fontFamily=Times New Roman;fillColor=#FFFFFF;strokeColor=#008A00;" vertex="1" parent="1">
          <mxGeometry x="272.5" y="407" width="55" height="55" as="geometry" />
        </mxCell>
        <mxCell id="iHsdo4Bu1vToOxYBje5i-17" value="" style="verticalLabelPosition=bottom;verticalAlign=top;html=1;shadow=0;dashed=0;strokeWidth=1;shape=mxgraph.android.keyboard;sketch=0;fontFamily=Times New Roman;fillColor=#FFFFFF;" vertex="1" parent="1">
          <mxGeometry x="442" y="352" width="286" height="132" as="geometry" />
        </mxCell>
        <mxCell id="iHsdo4Bu1vToOxYBje5i-19" value="" style="html=1;shadow=0;dashed=0;align=center;verticalAlign=middle;shape=mxgraph.arrows2.arrow;dy=0.6;dx=40;flipH=1;notch=0;fontFamily=Times New Roman;fillColor=#000000;" vertex="1" parent="1">
          <mxGeometry x="480" y="64" width="6" height="11" as="geometry" />
        </mxCell>
        <mxCell id="iHsdo4Bu1vToOxYBje5i-20" value="" style="html=1;verticalLabelPosition=bottom;align=center;labelBackgroundColor=#ffffff;verticalAlign=top;strokeWidth=2;strokeColor=#009900;shadow=0;dashed=0;shape=mxgraph.ios7.icons.chat;fontFamily=Times New Roman;fillColor=#FFFFFF;movable=1;resizable=1;rotatable=1;deletable=1;editable=1;connectable=1;" vertex="1" parent="1">
          <mxGeometry x="285" y="425.5" width="30" height="18" as="geometry" />
        </mxCell>
        <mxCell id="iHsdo4Bu1vToOxYBje5i-21" value="" style="ellipse;whiteSpace=wrap;html=1;aspect=fixed;shadow=0;glass=0;sketch=0;fillStyle=auto;strokeColor=#000000;fontSize=11;fillColor=default;gradientColor=none;gradientDirection=north;" vertex="1" parent="1">
          <mxGeometry x="447" y="132" width="44" height="44" as="geometry" />
        </mxCell>
        <mxCell id="iHsdo4Bu1vToOxYBje5i-22" value="" style="shape=actor;whiteSpace=wrap;html=1;rounded=0;shadow=0;glass=0;sketch=0;fillStyle=auto;strokeColor=#000000;fontSize=11;fillColor=#000000;gradientColor=none;gradientDirection=north;" vertex="1" parent="1">
          <mxGeometry x="453.79" y="137.5" width="30.42" height="33" as="geometry" />
        </mxCell>
        <mxCell id="iHsdo4Bu1vToOxYBje5i-106" style="edgeStyle=orthogonalEdgeStyle;rounded=0;orthogonalLoop=1;jettySize=auto;html=1;fontFamily=Helvetica;fontSize=11;fontColor=#000000;" edge="1" parent="1" source="iHsdo4Bu1vToOxYBje5i-23" target="iHsdo4Bu1vToOxYBje5i-103">
          <mxGeometry relative="1" as="geometry">
            <Array as="points">
              <mxPoint x="770" y="154" />
              <mxPoint x="770" y="154" />
            </Array>
          </mxGeometry>
        </mxCell>
        <mxCell id="iHsdo4Bu1vToOxYBje5i-23" value="&lt;font size=&quot;1&quot; style=&quot;&quot; face=&quot;Comic Sans MS&quot;&gt;&lt;b style=&quot;font-size: 16px;&quot;&gt;Person 1&lt;/b&gt;&lt;/font&gt;" style="text;html=1;strokeColor=none;fillColor=none;align=center;verticalAlign=middle;whiteSpace=wrap;rounded=0;shadow=0;glass=0;sketch=0;fillStyle=auto;fontSize=11;" vertex="1" parent="1">
          <mxGeometry x="491" y="137.5" width="79" height="33" as="geometry" />
        </mxCell>
        <mxCell id="iHsdo4Bu1vToOxYBje5i-24" value="" style="ellipse;whiteSpace=wrap;html=1;aspect=fixed;shadow=0;glass=0;sketch=0;fillStyle=auto;strokeColor=#000000;fontSize=11;fillColor=default;gradientColor=none;gradientDirection=north;" vertex="1" parent="1">
          <mxGeometry x="447" y="187" width="44" height="44" as="geometry" />
        </mxCell>
        <mxCell id="iHsdo4Bu1vToOxYBje5i-25" value="" style="shape=actor;whiteSpace=wrap;html=1;rounded=0;shadow=0;glass=0;sketch=0;fillStyle=auto;strokeColor=#000000;fontSize=11;fillColor=#000000;gradientColor=none;gradientDirection=north;" vertex="1" parent="1">
          <mxGeometry x="453.79" y="192.5" width="30.42" height="33" as="geometry" />
        </mxCell>
        <mxCell id="iHsdo4Bu1vToOxYBje5i-26" value="&lt;font size=&quot;1&quot; style=&quot;&quot; face=&quot;Comic Sans MS&quot;&gt;&lt;b style=&quot;font-size: 16px;&quot;&gt;Person 2&lt;/b&gt;&lt;/font&gt;" style="text;html=1;strokeColor=none;fillColor=none;align=center;verticalAlign=middle;whiteSpace=wrap;rounded=0;shadow=0;glass=0;sketch=0;fillStyle=auto;fontSize=11;" vertex="1" parent="1">
          <mxGeometry x="491" y="192.5" width="79" height="33" as="geometry" />
        </mxCell>
        <mxCell id="iHsdo4Bu1vToOxYBje5i-27" value="" style="ellipse;whiteSpace=wrap;html=1;aspect=fixed;shadow=0;glass=0;sketch=0;fillStyle=auto;strokeColor=#000000;fontSize=11;fillColor=default;gradientColor=none;gradientDirection=north;" vertex="1" parent="1">
          <mxGeometry x="447" y="242" width="44" height="44" as="geometry" />
        </mxCell>
        <mxCell id="iHsdo4Bu1vToOxYBje5i-28" value="" style="shape=actor;whiteSpace=wrap;html=1;rounded=0;shadow=0;glass=0;sketch=0;fillStyle=auto;strokeColor=#000000;fontSize=11;fillColor=#000000;gradientColor=none;gradientDirection=north;" vertex="1" parent="1">
          <mxGeometry x="453.79" y="247.5" width="30.42" height="33" as="geometry" />
        </mxCell>
        <mxCell id="iHsdo4Bu1vToOxYBje5i-29" value="&lt;font size=&quot;1&quot; style=&quot;&quot; face=&quot;Comic Sans MS&quot;&gt;&lt;b style=&quot;font-size: 16px;&quot;&gt;Person 3&lt;/b&gt;&lt;/font&gt;" style="text;html=1;strokeColor=none;fillColor=none;align=center;verticalAlign=middle;whiteSpace=wrap;rounded=0;shadow=0;glass=0;sketch=0;fillStyle=auto;fontSize=11;" vertex="1" parent="1">
          <mxGeometry x="491" y="247.5" width="79" height="33" as="geometry" />
        </mxCell>
        <mxCell id="iHsdo4Bu1vToOxYBje5i-60" value="" style="rounded=1;whiteSpace=wrap;html=1;gradientColor=none;gradientDirection=north;strokeColor=default;fillColor=#FFFFFF;fillStyle=auto;glass=0;shadow=0;sketch=0;container=0;verticalAlign=middle;imageAspect=1;movable=1;resizable=1;rotatable=1;deletable=1;editable=1;connectable=1;" vertex="1" parent="1">
          <mxGeometry x="70" y="561" width="290" height="490" as="geometry" />
        </mxCell>
        <mxCell id="iHsdo4Bu1vToOxYBje5i-63" value="" style="line;strokeWidth=1;fillColor=none;align=left;verticalAlign=middle;spacingTop=-1;spacingLeft=3;spacingRight=3;rotatable=0;labelPosition=right;points=[];portConstraint=eastwest;strokeColor=inherit;fillStyle=auto;fontFamily=Verdana;fontSize=11;fontColor=#00994D;" vertex="1" parent="1">
          <mxGeometry x="68.5" y="627" width="293" height="8" as="geometry" />
        </mxCell>
        <mxCell id="iHsdo4Bu1vToOxYBje5i-64" value="&lt;b&gt;&lt;font style=&quot;font-size: 15px;&quot;&gt;Pilih Kontak&lt;/font&gt;&lt;/b&gt;" style="text;html=1;strokeColor=none;fillColor=none;align=center;verticalAlign=middle;whiteSpace=wrap;rounded=0;fontFamily=Times New Roman;" vertex="1" parent="1">
          <mxGeometry x="121" y="583" width="102.79" height="22" as="geometry" />
        </mxCell>
        <mxCell id="iHsdo4Bu1vToOxYBje5i-65" value="" style="html=1;verticalLabelPosition=bottom;align=center;labelBackgroundColor=#ffffff;verticalAlign=top;strokeWidth=2;strokeColor=#000000;shadow=0;dashed=0;shape=mxgraph.ios7.icons.looking_glass;" vertex="1" parent="1">
          <mxGeometry x="290" y="585" width="20" height="20" as="geometry" />
        </mxCell>
        <mxCell id="iHsdo4Bu1vToOxYBje5i-66" value="" style="rounded=0;whiteSpace=wrap;html=1;shadow=0;glass=0;sketch=0;fillStyle=auto;strokeColor=none;fontSize=10;fillColor=none;gradientColor=none;gradientDirection=north;image=https://cdn.icon-icons.com/icons2/2954/PNG/512/three_dots_vertical_menu_icon_184615.png;" vertex="1" parent="1">
          <mxGeometry x="315" y="577.5" width="34" height="33" as="geometry" />
        </mxCell>
        <mxCell id="iHsdo4Bu1vToOxYBje5i-67" value="" style="ellipse;whiteSpace=wrap;html=1;aspect=fixed;strokeColor=#000000;fontFamily=Times New Roman;fontSize=15;fillColor=#FFFFFF;" vertex="1" parent="1">
          <mxGeometry x="81.29" y="638" width="55" height="55" as="geometry" />
        </mxCell>
        <mxCell id="iHsdo4Bu1vToOxYBje5i-70" value="" style="ellipse;whiteSpace=wrap;html=1;aspect=fixed;strokeColor=#000000;fontFamily=Times New Roman;fontSize=15;fillColor=#FFFFFF;" vertex="1" parent="1">
          <mxGeometry x="81.29" y="704" width="55" height="55" as="geometry" />
        </mxCell>
        <mxCell id="iHsdo4Bu1vToOxYBje5i-72" value="" style="shape=actor;whiteSpace=wrap;html=1;strokeColor=#007FFF;fontFamily=Times New Roman;fontSize=15;fillColor=#007FFF;" vertex="1" parent="1">
          <mxGeometry x="93.29" y="712.87" width="27.71" height="35.13" as="geometry" />
        </mxCell>
        <mxCell id="iHsdo4Bu1vToOxYBje5i-73" value="" style="shape=image;verticalLabelPosition=bottom;labelBackgroundColor=default;verticalAlign=top;aspect=fixed;imageAspect=0;image=https://img2.pngdownload.id/20180728/ftk/kisspng-computer-icons-icon-design-users-group-group-icon-5b5c712f527ed9.0606827715327849433379.jpg;" vertex="1" parent="1">
          <mxGeometry x="89.54" y="646.25" width="38.5" height="38.5" as="geometry" />
        </mxCell>
        <mxCell id="iHsdo4Bu1vToOxYBje5i-79" value="Grub Baru" style="text;html=1;strokeColor=none;fillColor=none;align=center;verticalAlign=middle;whiteSpace=wrap;rounded=0;labelBackgroundColor=none;sketch=0;fillStyle=auto;fontFamily=Helvetica;fontSize=15;fontColor=#000000;fontStyle=1" vertex="1" parent="1">
          <mxGeometry x="143" y="653.12" width="88" height="24.75" as="geometry" />
        </mxCell>
        <mxCell id="iHsdo4Bu1vToOxYBje5i-99" value="" style="ellipse;whiteSpace=wrap;html=1;aspect=fixed;shadow=0;glass=0;sketch=0;fillStyle=auto;strokeColor=#000000;fontSize=11;fillColor=default;gradientColor=none;gradientDirection=north;" vertex="1" parent="1">
          <mxGeometry x="80" y="795.5" width="44" height="44" as="geometry" />
        </mxCell>
        <mxCell id="iHsdo4Bu1vToOxYBje5i-80" value="&lt;b&gt;Tambah Kontak&lt;/b&gt;" style="text;html=1;strokeColor=none;fillColor=none;align=center;verticalAlign=middle;whiteSpace=wrap;rounded=0;labelBackgroundColor=none;sketch=0;fillStyle=auto;fontFamily=Helvetica;fontSize=15;fontColor=#000000;" vertex="1" parent="1">
          <mxGeometry x="143" y="715.44" width="116.05" height="30" as="geometry" />
        </mxCell>
        <mxCell id="iHsdo4Bu1vToOxYBje5i-81" value="Daftar Kontak" style="text;html=1;strokeColor=none;fillColor=none;align=center;verticalAlign=middle;whiteSpace=wrap;rounded=0;labelBackgroundColor=none;sketch=0;fillStyle=auto;fontFamily=Helvetica;fontSize=11;fontColor=#000000;fontStyle=0" vertex="1" parent="1">
          <mxGeometry x="44.00000000000001" y="765.5" width="170.71" height="30" as="geometry" />
        </mxCell>
        <mxCell id="iHsdo4Bu1vToOxYBje5i-91" value="" style="shape=actor;whiteSpace=wrap;html=1;rounded=0;shadow=0;glass=0;sketch=0;fillStyle=auto;strokeColor=#000000;fontSize=11;fillColor=#000000;gradientColor=none;gradientDirection=north;" vertex="1" parent="1">
          <mxGeometry x="86.79000000000002" y="800" width="30.42" height="33" as="geometry" />
        </mxCell>
        <mxCell id="iHsdo4Bu1vToOxYBje5i-92" value="&lt;font size=&quot;1&quot; style=&quot;&quot; face=&quot;Comic Sans MS&quot;&gt;&lt;b style=&quot;font-size: 16px;&quot;&gt;Person 1&lt;/b&gt;&lt;/font&gt;" style="text;html=1;strokeColor=none;fillColor=none;align=center;verticalAlign=middle;whiteSpace=wrap;rounded=0;shadow=0;glass=0;sketch=0;fillStyle=auto;fontSize=11;" vertex="1" parent="1">
          <mxGeometry x="124" y="800" width="79" height="33" as="geometry" />
        </mxCell>
        <mxCell id="iHsdo4Bu1vToOxYBje5i-93" value="" style="ellipse;whiteSpace=wrap;html=1;aspect=fixed;shadow=0;glass=0;sketch=0;fillStyle=auto;strokeColor=#000000;fontSize=11;fillColor=default;gradientColor=none;gradientDirection=north;" vertex="1" parent="1">
          <mxGeometry x="80" y="849.5" width="44" height="44" as="geometry" />
        </mxCell>
        <mxCell id="iHsdo4Bu1vToOxYBje5i-94" value="" style="shape=actor;whiteSpace=wrap;html=1;rounded=0;shadow=0;glass=0;sketch=0;fillStyle=auto;strokeColor=#000000;fontSize=11;fillColor=#000000;gradientColor=none;gradientDirection=north;" vertex="1" parent="1">
          <mxGeometry x="86.79000000000002" y="855" width="30.42" height="33" as="geometry" />
        </mxCell>
        <mxCell id="iHsdo4Bu1vToOxYBje5i-95" value="&lt;font size=&quot;1&quot; style=&quot;&quot; face=&quot;Comic Sans MS&quot;&gt;&lt;b style=&quot;font-size: 16px;&quot;&gt;Person 2&lt;/b&gt;&lt;/font&gt;" style="text;html=1;strokeColor=none;fillColor=none;align=center;verticalAlign=middle;whiteSpace=wrap;rounded=0;shadow=0;glass=0;sketch=0;fillStyle=auto;fontSize=11;" vertex="1" parent="1">
          <mxGeometry x="124" y="855" width="79" height="33" as="geometry" />
        </mxCell>
        <mxCell id="iHsdo4Bu1vToOxYBje5i-96" value="" style="ellipse;whiteSpace=wrap;html=1;aspect=fixed;shadow=0;glass=0;sketch=0;fillStyle=auto;strokeColor=#000000;fontSize=11;fillColor=default;gradientColor=none;gradientDirection=north;" vertex="1" parent="1">
          <mxGeometry x="80" y="904.5" width="44" height="44" as="geometry" />
        </mxCell>
        <mxCell id="iHsdo4Bu1vToOxYBje5i-97" value="" style="shape=actor;whiteSpace=wrap;html=1;rounded=0;shadow=0;glass=0;sketch=0;fillStyle=auto;strokeColor=#000000;fontSize=11;fillColor=#000000;gradientColor=none;gradientDirection=north;" vertex="1" parent="1">
          <mxGeometry x="86.79000000000002" y="910" width="30.42" height="33" as="geometry" />
        </mxCell>
        <mxCell id="iHsdo4Bu1vToOxYBje5i-98" value="&lt;font size=&quot;1&quot; style=&quot;&quot; face=&quot;Comic Sans MS&quot;&gt;&lt;b style=&quot;font-size: 16px;&quot;&gt;Person 3&lt;/b&gt;&lt;/font&gt;" style="text;html=1;strokeColor=none;fillColor=none;align=center;verticalAlign=middle;whiteSpace=wrap;rounded=0;shadow=0;glass=0;sketch=0;fillStyle=auto;fontSize=11;" vertex="1" parent="1">
          <mxGeometry x="124" y="910" width="79" height="33" as="geometry" />
        </mxCell>
        <mxCell id="iHsdo4Bu1vToOxYBje5i-103" value="" style="rounded=1;whiteSpace=wrap;html=1;gradientColor=none;gradientDirection=north;strokeColor=default;fillColor=#FFFFFF;fillStyle=auto;glass=0;shadow=0;sketch=0;container=0;verticalAlign=middle;imageAspect=1;movable=0;resizable=0;rotatable=0;deletable=0;editable=0;connectable=0;" vertex="1" parent="1">
          <mxGeometry x="792" y="40" width="290" height="490" as="geometry" />
        </mxCell>
        <mxCell id="iHsdo4Bu1vToOxYBje5i-107" value="" style="shape=image;verticalLabelPosition=bottom;labelBackgroundColor=default;verticalAlign=top;aspect=fixed;imageAspect=0;image=data:image/png,iVBORw0KGgoAAAANSUhEUgAAAgAAAAIACAYAAAD0eNT6AAAABHNCSVQICAgIfAhkiAAAAAlwSFlzAAAOxAAADsQBlSsOGwAAABl0RVh0U29mdHdhcmUAd3d3Lmlua3NjYXBlLm9yZ5vuPBoAAA1ySURBVHic7d1PqKbXXQfw78xNGqPTiImG/okLm3YRsEZdCHZh24U01YVgQRpqadW46E4EF9loXbnRCoYKUtCU2IgVIRSMpiptsrGuXLhoa0yIGps/SsAktTMJM9fFO1duJpnMvTPPe897nu/nA4eBWf2es/l+z3nv+z4JAAAAAAAAAAAAAAAAAAAAAAAAAAAAAAAAAAAAAAAAAAAAAAAAAAAAAAAAAAAAAAAAAAAAAAAAAAAAAAAAAAAAAAAAAAAAAAAAAAAAAAAAAAAAAAAAAAAAAAAAAAAAAAAAAAAAAAAAAAAAAAAAAAAAAAAAAAAAAAAAAAAAAAAAAAAAAAAAAAAAAAAAAAAAAAAAAAAAAAAAAAAAAAAAAAAAAAAAAAAAAAAA8BqnRg8AE3trkvcneV+SO5LcfvH/vjfJi0m+k+TJJN9M8g9JHkvy3JBJAYBrspfk55N8KckrSfaPsc4neTTJPUluPOnBAYDjO53kl5I8nuOF/uXW80nujSIAADvrziRfyzLBf+l6MsmHT+5RAICj+FSSs9lO+B+sC0l+L8n1J/RMAMBlnE7yh9lu8F+6Hkly5iQeDgB4vb0kD+Rkw/9gfS1KAACcuL0kD2ZM+B++CfBxAACckJEn/0vX7275WQGA7MbJ//C6kOSurT4xAJTbpZP/4fVEku/a4nMDQK1dO/lfuu7d3qMDQKddPfkfXs8l+e5tbQAAtNn1k//h9atb2gMAqDLDyf/w+upWdgEAisx08j9Y55Pcuo3NAIAGs538D6+PbGE/gGKnRw8AJ+Qg/H9x9CBX6X2jBwCA2cx88j9YX1p8VwBgxWb8zP+N1j8vvTEAsFZrOPkfrH9beG8AYJXWcvI/WM8vuz0AsD5rOvkfrCcX3SEAWJm1nfwP1j8tuUkAvgbImuwluT/J3YPn2IYnRg8ArMt1oweAhRxc+68x/JPk66MHAIBds8bP/C9dH1pstwBgBdb6mf/hdTZeCQwA/6/h5L+f5C+X2jAAmF3Dyf9g/dxCewYAU2s5+e8nefzi8wJAtaaT/36Sjy+zbQAwr6aT/36Sf4zf6gCgXNvJ/ztJfniRnQOASbWd/PeT3LPIzgHApNpO/vtJ/mCRnQOASTWG/wPxuT8AxRqv/f883s8BQDHhDwBlhD8AlBH+AFBG+ANAGeEPAGWEPwCUEf4AUEb4A0AZ4Q8AZYQ/AJQR/gBQRvgDQBnhDwBlhD8AlBH+AFBG+ANAGeEPAGWEPwCUEf4AUEb4A0AZ4Q8AZYQ/AJQR/gBQRvgDQBnhDwBlhD8AlBH+AFBG+ANAGeEPAGWEPwCUEf4AUEb4A0AZ4Q8AZYQ/AJQR/gBQRvgDQBnhDwBlhD8AlBH+AFBG+ANAGeEPAGWEPwCUEf4AUEb4A0AZ4Q8AZYQ/AJQR/gBQRvgDQBnhDwBlhD8AlBH+AFBG+ANAGeEPAGWEPwCUEf4AUKYx/L8Y4Q9AMeEPAGWEPwCUEf4AUEb4A0AZ4Q8AZYQ/AJQR/gBQRvgDQBnhDwBlhD8AlBH+AFBG+ANAGeEPAGWEPwCUEf4AUEb4A0AZ4Q8AZYQ/AJQR/gBQRvgDQBnhDwBlhD8AlBH+AFBG+ANAGeEPAGWEPwCUEf4AUEb4A0AZ4Q8AZYQ/AJQR/gBQRvgDQBnhDwBlhD8AlBH+AFBG+ANAGeEPAGWEPwCUEf4AUEb4A0AZ4Q8AZYQ/AJQR/gBQRvgDQBnhDwBlhD8AlBH+AFBG+ANAGeEPAGWEPwCUEf4AUEb4A0AZ4Q8AZYQ/AJQR/gDwBk6NHmCLDsL/7tGDnKCnktyb5PzgOQBm8EqSbyd5Nsm/Jjk7dpyTtdYC0Bj+AFy9C0keT/KVJI8keTibgrBaaywAwh+Aa/VCks8n+UySpwfPshVrKwDCH4AlvZLks0k+neTFsaMsa00FQPgDsC3fSvLJJH87eI7F7I0eYCHCH4BtemuSj2VzcH5s8CyLWEMBEP4AnIRTST6Q5LYkf5XNV6+nNXsBOJXkj5J8YvQgANT48SQ/lOSh0YNci9kLwKeT/ProIQCoc2c2Xx18dPQgV2vmPwL8QJK/y/wlBoA5XUjy4SRfHj3I1Zi1ANyU5BtJ3j56EACq/WeSO5K8NHqQ45r19Pw7SX569BAA1LspyQ2Z8BZgxhuAH0zyRJLrRw8CAEnOJbk9m9uAaZwePcBV+LUIfwB2xw2Z8A/SZ7sBeEuSZ5LcPHoQADjkhSTvyOY2YAqz3QDcFeEPwO65OcmHRg9xHLMVgJ8ZPQAAXIYCsEU/NXoAALiMD44e4Dhm+huAG5O8nPlKCwAdzic5k+Ts6EGOYqYwfVfmmheALnvZfB1wCjMF6ttGDwAAV/ADowc4qpkKwJnRAwDAFdw0eoCjmqkATP3eZQDYJTMVgG+PHgAAruDF0QMc1UwF4NnRAwDAFfzX6AGOaqavAd6Q5H8zV2kBoIevAW7JuSTfGD0EAFzGNzNJ+CdzFYAkeWz0AABwGV8ZPcBxzFYAHh49AABcxiOjBziOmf4GIEmuz+Z1wLeMHgQADnkhyduTvDJ6kKOa7Qbg1ST3jx4CAC7xJ5ko/JP5bgCS5LYkTyR5y+hBACCbP/y7Pcm3Rg9yHLPdACTJ00nuGz0EAFx0XyYL/2TOG4Bk81vLX0/yjtGDAFDt6SR3ZPO6+qnMeAOQbH5q8WPZ/OgCAIxwIckvZ8LwTzbvLp7VUxf//eDIIQCo9ZuZ+A/TZy4ASfJoku9P8hOjBwGgyueS/MboIa7F7AUgSb6c5D1J3jt6EAAqfC7JpzL5a+rXUAD2kzwUJQCA7Tqf5LeyOflPHf7JOgpAogQAsF1PJ/lIks+PHmQpaykAiRIAwPLOJvn9JL+Qzdv+VmPW3wF4M3tJHkhy9+hBAJjWf2dz2v9MJvyRn6NYYwFIlAAAjud8kn/J5pW+f5PNm/2m+m3/41prAUg6S8BTSe6NH0gCOIpz2fyIz7PZvGPm3NhxWNJBCdgvWl9Mct0SmwcAM1MCAKCUEgAApZQAACilBABAKSUAAEopAQBQSgkAgFJKAACUUgIAoJQSAACllAAAKKUEAEApJQAASikBAFBKCQCAUkoAAJRSAgCglBIAAKWUAAAopQQAQCklAABKKQEAUEoJAIBSSgAAlFICAKCUEgAApZQAACilBABAKSUAAEopAQBQSgkAgFJKAACUUgIAoJQSAACllAAAKKUEAEApJQAASikBAFBKCQCAUkoAAJRSAgCglBIAAKWUAAAopQQAQCklAABKKQEAUEoJAIBSSgAAlFICAKCUEgAApZQAACilBABAKSUAAEopAQBQSgkAgFJKAACUUgIAoJQSAACllAAAKKUEAEApJQAASikBAFBKCQCAUkoAAJRSAgCglBIAAKWUAAAopQQAQCklAABKKQEAUEoJAIBSSgAAlFICAKCUEgAApZQAACilBABAKSUAAEopAQBQSgkAgFJKAACUUgIAoJQSAACllAAAKKUEAEApJQAASikBAFBKCQCAUkoAAJRSAgCglBIAAKWUAAAopQQAQCklAABKKQEAUEoJAIBSSgAAlFICAKCUEgAApZQAACilBABAKSUAAEopAQBQSgkAgFJKAACUUgIAoJQSAACllAAAKKUEAEApJQAASikBAFBKCQCAUntJHsz4YD7JdX+SUwvsHcCb2hs9ALyJ/SQPJXlPkvcOnuWk/Gg2BeCrg+cAgOHaPg64kORnF9k5AJhc28cBzyS5ZZGdA3gDPgJgFgcfB7wryY8MnuUknElyY5K/Hj0IAOyCppuAV5O8e5ltA3gtNwDMpukm4HQ2Xwt8ePQgALArWm4CXs7m4wAA4KKWbwd8dKkNA4C1aLgJ+MJiuwUAK7L2m4D/WG6rAGBd1n4TcOtyWwUA67Lmm4CfXHCfAHJ69ACwoPNJPpnkzwbPsQ3vHD0AsC4KAGtzPsnHk/zp6EEW9j2jBwDWRQFgjdZ4E+BHu4BFKQCs1dpuAl4cPQAAzGQt3w54/9IbAwBrt4ZvB7xt8V0BgAIz3wQ8v4X9AIAas94E/MU2NgMAmsx4E3DPVnYCAMrMdBNwLsnN29kGAOgzy03Ag9vaAABoNcNNwI9t7ekBoNgu3wSs6ZcMAWDn7GIJeCnJbdt8aABg9z4O+MR2HxcAOLArNwF/vO0HBQBea/RNwN8nuWHrTwkAvM5ekvtz8uH/SJIz2388AOByTiX57SQXcnLX/tefyJMBAFd0V5Jnsr3gfyn+4A8AdtItSe5L8mqWC/4L2XzP/50n+BwAwFV4d5LPJnk5Vx/8Z7P5psGdJzw7AHCNziT5aJIvJPn3XDn0n8/mlb6/kuT7BswL8DqnRg8AK3Brktuzuc4/k+S6JP+T5Lkkj2fzNwQAAAAAAAAAAAAAAAAAAAAAAAAAAAAAAAAAAAAAAAAAAAAAAAAAAAAAAAAAAAAAAAAAAAAAAAAAAAAAAAAAAAAAAAAAAAAAAAAAAAAAAAAAAAAAAAAAAAAAAAAAAAAAAAAAAAAAAAAAAAAAAAAAAAAAAAAAAAAAAAAAAAAAAAAAAAAAAAAAAAAAAAAAAAAAAAAAAAAAAAAAAAAAAAAAAAAAAAAAAAAAAAAAwC77P+Bw15A8seuVAAAAAElFTkSuQmCC;" vertex="1" parent="1">
          <mxGeometry x="92.5" y="580.25" width="27.5" height="27.5" as="geometry" />
        </mxCell>
        <mxCell id="iHsdo4Bu1vToOxYBje5i-108" value="" style="shape=image;verticalLabelPosition=bottom;labelBackgroundColor=default;verticalAlign=top;aspect=fixed;imageAspect=0;image=data:image/png,iVBORw0KGgoAAAANSUhEUgAAAgAAAAIACAYAAAD0eNT6AAAABHNCSVQICAgIfAhkiAAAAAlwSFlzAAAOxAAADsQBlSsOGwAAABl0RVh0U29mdHdhcmUAd3d3Lmlua3NjYXBlLm9yZ5vuPBoAAA1ySURBVHic7d1PqKbXXQfw78xNGqPTiImG/okLm3YRsEZdCHZh24U01YVgQRpqadW46E4EF9loXbnRCoYKUtCU2IgVIRSMpiptsrGuXLhoa0yIGps/SsAktTMJM9fFO1duJpnMvTPPe897nu/nA4eBWf2es/l+z3nv+z4JAAAAAAAAAAAAAAAAAAAAAAAAAAAAAAAAAAAAAAAAAAAAAAAAAAAAAAAAAAAAAAAAAAAAAAAAAAAAAAAAAAAAAAAAAAAAAAAAAAAAAAAAAAAAAAAAAAAAAAAAAAAAAAAAAAAAAAAAAAAAAAAAAAAAAAAAAAAAAAAAAAAAAAAAAAAAAAAAAAAAAAAAAAAAAAAAAAAAAAAAAAAAAAAAAAAAAAAAAAAAAAAA8BqnRg8AE3trkvcneV+SO5LcfvH/vjfJi0m+k+TJJN9M8g9JHkvy3JBJAYBrspfk55N8KckrSfaPsc4neTTJPUluPOnBAYDjO53kl5I8nuOF/uXW80nujSIAADvrziRfyzLBf+l6MsmHT+5RAICj+FSSs9lO+B+sC0l+L8n1J/RMAMBlnE7yh9lu8F+6Hkly5iQeDgB4vb0kD+Rkw/9gfS1KAACcuL0kD2ZM+B++CfBxAACckJEn/0vX7275WQGA7MbJ//C6kOSurT4xAJTbpZP/4fVEku/a4nMDQK1dO/lfuu7d3qMDQKddPfkfXs8l+e5tbQAAtNn1k//h9atb2gMAqDLDyf/w+upWdgEAisx08j9Y55Pcuo3NAIAGs538D6+PbGE/gGKnRw8AJ+Qg/H9x9CBX6X2jBwCA2cx88j9YX1p8VwBgxWb8zP+N1j8vvTEAsFZrOPkfrH9beG8AYJXWcvI/WM8vuz0AsD5rOvkfrCcX3SEAWJm1nfwP1j8tuUkAvgbImuwluT/J3YPn2IYnRg8ArMt1oweAhRxc+68x/JPk66MHAIBds8bP/C9dH1pstwBgBdb6mf/hdTZeCQwA/6/h5L+f5C+X2jAAmF3Dyf9g/dxCewYAU2s5+e8nefzi8wJAtaaT/36Sjy+zbQAwr6aT/36Sf4zf6gCgXNvJ/ztJfniRnQOASbWd/PeT3LPIzgHApNpO/vtJ/mCRnQOASTWG/wPxuT8AxRqv/f883s8BQDHhDwBlhD8AlBH+AFBG+ANAGeEPAGWEPwCUEf4AUEb4A0AZ4Q8AZYQ/AJQR/gBQRvgDQBnhDwBlhD8AlBH+AFBG+ANAGeEPAGWEPwCUEf4AUEb4A0AZ4Q8AZYQ/AJQR/gBQRvgDQBnhDwBlhD8AlBH+AFBG+ANAGeEPAGWEPwCUEf4AUEb4A0AZ4Q8AZYQ/AJQR/gBQRvgDQBnhDwBlhD8AlBH+AFBG+ANAGeEPAGWEPwCUEf4AUEb4A0AZ4Q8AZYQ/AJQR/gBQRvgDQBnhDwBlhD8AlBH+AFBG+ANAGeEPAGWEPwCUEf4AUKYx/L8Y4Q9AMeEPAGWEPwCUEf4AUEb4A0AZ4Q8AZYQ/AJQR/gBQRvgDQBnhDwBlhD8AlBH+AFBG+ANAGeEPAGWEPwCUEf4AUEb4A0AZ4Q8AZYQ/AJQR/gBQRvgDQBnhDwBlhD8AlBH+AFBG+ANAGeEPAGWEPwCUEf4AUEb4A0AZ4Q8AZYQ/AJQR/gBQRvgDQBnhDwBlhD8AlBH+AFBG+ANAGeEPAGWEPwCUEf4AUEb4A0AZ4Q8AZYQ/AJQR/gBQRvgDQBnhDwBlhD8AlBH+AFBG+ANAGeEPAGWEPwCUEf4AUEb4A0AZ4Q8AZYQ/AJQR/gDwBk6NHmCLDsL/7tGDnKCnktyb5PzgOQBm8EqSbyd5Nsm/Jjk7dpyTtdYC0Bj+AFy9C0keT/KVJI8keTibgrBaaywAwh+Aa/VCks8n+UySpwfPshVrKwDCH4AlvZLks0k+neTFsaMsa00FQPgDsC3fSvLJJH87eI7F7I0eYCHCH4BtemuSj2VzcH5s8CyLWEMBEP4AnIRTST6Q5LYkf5XNV6+nNXsBOJXkj5J8YvQgANT48SQ/lOSh0YNci9kLwKeT/ProIQCoc2c2Xx18dPQgV2vmPwL8QJK/y/wlBoA5XUjy4SRfHj3I1Zi1ANyU5BtJ3j56EACq/WeSO5K8NHqQ45r19Pw7SX569BAA1LspyQ2Z8BZgxhuAH0zyRJLrRw8CAEnOJbk9m9uAaZwePcBV+LUIfwB2xw2Z8A/SZ7sBeEuSZ5LcPHoQADjkhSTvyOY2YAqz3QDcFeEPwO65OcmHRg9xHLMVgJ8ZPQAAXIYCsEU/NXoAALiMD44e4Dhm+huAG5O8nPlKCwAdzic5k+Ts6EGOYqYwfVfmmheALnvZfB1wCjMF6ttGDwAAV/ADowc4qpkKwJnRAwDAFdw0eoCjmqkATP3eZQDYJTMVgG+PHgAAruDF0QMc1UwF4NnRAwDAFfzX6AGOaqavAd6Q5H8zV2kBoIevAW7JuSTfGD0EAFzGNzNJ+CdzFYAkeWz0AABwGV8ZPcBxzFYAHh49AABcxiOjBziOmf4GIEmuz+Z1wLeMHgQADnkhyduTvDJ6kKOa7Qbg1ST3jx4CAC7xJ5ko/JP5bgCS5LYkTyR5y+hBACCbP/y7Pcm3Rg9yHLPdACTJ00nuGz0EAFx0XyYL/2TOG4Bk81vLX0/yjtGDAFDt6SR3ZPO6+qnMeAOQbH5q8WPZ/OgCAIxwIckvZ8LwTzbvLp7VUxf//eDIIQCo9ZuZ+A/TZy4ASfJoku9P8hOjBwGgyueS/MboIa7F7AUgSb6c5D1J3jt6EAAqfC7JpzL5a+rXUAD2kzwUJQCA7Tqf5LeyOflPHf7JOgpAogQAsF1PJ/lIks+PHmQpaykAiRIAwPLOJvn9JL+Qzdv+VmPW3wF4M3tJHkhy9+hBAJjWf2dz2v9MJvyRn6NYYwFIlAAAjud8kn/J5pW+f5PNm/2m+m3/41prAUg6S8BTSe6NH0gCOIpz2fyIz7PZvGPm3NhxWNJBCdgvWl9Mct0SmwcAM1MCAKCUEgAApZQAACilBABAKSUAAEopAQBQSgkAgFJKAACUUgIAoJQSAACllAAAKKUEAEApJQAASikBAFBKCQCAUkoAAJRSAgCglBIAAKWUAAAopQQAQCklAABKKQEAUEoJAIBSSgAAlFICAKCUEgAApZQAACilBABAKSUAAEopAQBQSgkAgFJKAACUUgIAoJQSAACllAAAKKUEAEApJQAASikBAFBKCQCAUkoAAJRSAgCglBIAAKWUAAAopQQAQCklAABKKQEAUEoJAIBSSgAAlFICAKCUEgAApZQAACilBABAKSUAAEopAQBQSgkAgFJKAACUUgIAoJQSAACllAAAKKUEAEApJQAASikBAFBKCQCAUkoAAJRSAgCglBIAAKWUAAAopQQAQCklAABKKQEAUEoJAIBSSgAAlFICAKCUEgAApZQAACilBABAKSUAAEopAQBQSgkAgFJKAACUUgIAoJQSAACllAAAKKUEAEApJQAASikBAFBKCQCAUkoAAJRSAgCglBIAAKWUAAAopQQAQCklAABKKQEAUEoJAIBSSgAAlFICAKCUEgAApZQAACilBABAKSUAAEopAQBQSgkAgFJKAACUUgIAoJQSAACllAAAKKUEAEApJQAASikBAFBKCQCAUntJHsz4YD7JdX+SUwvsHcCb2hs9ALyJ/SQPJXlPkvcOnuWk/Gg2BeCrg+cAgOHaPg64kORnF9k5AJhc28cBzyS5ZZGdA3gDPgJgFgcfB7wryY8MnuUknElyY5K/Hj0IAOyCppuAV5O8e5ltA3gtNwDMpukm4HQ2Xwt8ePQgALArWm4CXs7m4wAA4KKWbwd8dKkNA4C1aLgJ+MJiuwUAK7L2m4D/WG6rAGBd1n4TcOtyWwUA67Lmm4CfXHCfAHJ69ACwoPNJPpnkzwbPsQ3vHD0AsC4KAGtzPsnHk/zp6EEW9j2jBwDWRQFgjdZ4E+BHu4BFKQCs1dpuAl4cPQAAzGQt3w54/9IbAwBrt4ZvB7xt8V0BgAIz3wQ8v4X9AIAas94E/MU2NgMAmsx4E3DPVnYCAMrMdBNwLsnN29kGAOgzy03Ag9vaAABoNcNNwI9t7ekBoNgu3wSs6ZcMAWDn7GIJeCnJbdt8aABg9z4O+MR2HxcAOLArNwF/vO0HBQBea/RNwN8nuWHrTwkAvM5ekvtz8uH/SJIz2388AOByTiX57SQXcnLX/tefyJMBAFd0V5Jnsr3gfyn+4A8AdtItSe5L8mqWC/4L2XzP/50n+BwAwFV4d5LPJnk5Vx/8Z7P5psGdJzw7AHCNziT5aJIvJPn3XDn0n8/mlb6/kuT7BswL8DqnRg8AK3Brktuzuc4/k+S6JP+T5Lkkj2fzNwQAAAAAAAAAAAAAAAAAAAAAAAAAAAAAAAAAAAAAAAAAAAAAAAAAAAAAAAAAAAAAAAAAAAAAAAAAAAAAAAAAAAAAAAAAAAAAAAAAAAAAAAAAAAAAAAAAAAAAAAAAAAAAAAAAAAAAAAAAAAAAAAAAAAAAAAAAAAAAAAAAAAAAAAAAAAAAAAAAAAAAAAAAAAAAAAAAAAAAAAAAAAAAAAAAAAAAAAAAAAAAAAAAwC77P+Bw15A8seuVAAAAAElFTkSuQmCC;" vertex="1" parent="1">
          <mxGeometry x="803" y="60" width="27.5" height="27.5" as="geometry" />
        </mxCell>
        <mxCell id="iHsdo4Bu1vToOxYBje5i-109" value="" style="ellipse;whiteSpace=wrap;html=1;aspect=fixed;shadow=0;glass=0;sketch=0;fillStyle=auto;strokeColor=#000000;fontSize=11;fillColor=default;gradientColor=none;gradientDirection=north;" vertex="1" parent="1">
          <mxGeometry x="830.5" y="51" width="44" height="44" as="geometry" />
        </mxCell>
        <mxCell id="iHsdo4Bu1vToOxYBje5i-110" value="" style="shape=actor;whiteSpace=wrap;html=1;rounded=0;shadow=0;glass=0;sketch=0;fillStyle=auto;strokeColor=#000000;fontSize=11;fillColor=#000000;gradientColor=none;gradientDirection=north;" vertex="1" parent="1">
          <mxGeometry x="837.29" y="56.5" width="30.42" height="33" as="geometry" />
        </mxCell>
        <mxCell id="iHsdo4Bu1vToOxYBje5i-111" value="&lt;font size=&quot;1&quot; style=&quot;&quot; face=&quot;Comic Sans MS&quot;&gt;&lt;b style=&quot;font-size: 16px;&quot;&gt;Person 1&lt;/b&gt;&lt;/font&gt;" style="text;html=1;strokeColor=none;fillColor=none;align=center;verticalAlign=middle;whiteSpace=wrap;rounded=0;shadow=0;glass=0;sketch=0;fillStyle=auto;fontSize=11;" vertex="1" parent="1">
          <mxGeometry x="874.5" y="56.5" width="79" height="33" as="geometry" />
        </mxCell>
        <mxCell id="iHsdo4Bu1vToOxYBje5i-113" value="" style="line;strokeWidth=1;fillColor=none;align=left;verticalAlign=middle;spacingTop=-1;spacingLeft=3;spacingRight=3;rotatable=0;labelPosition=right;points=[];portConstraint=eastwest;strokeColor=inherit;fillStyle=auto;fontFamily=Verdana;fontSize=11;fontColor=#00994D;" vertex="1" parent="1">
          <mxGeometry x="792" y="100" width="290" height="8" as="geometry" />
        </mxCell>
        <mxCell id="iHsdo4Bu1vToOxYBje5i-115" value="" style="html=1;verticalLabelPosition=bottom;labelBackgroundColor=#ffffff;verticalAlign=top;shadow=0;strokeWidth=4;shape=mxgraph.ios7.misc.flagged;strokeColor=#0080f0;sketch=0;fillStyle=auto;fontFamily=Helvetica;fontSize=11;fontColor=#000000;fillColor=#00994D;" vertex="1" parent="1">
          <mxGeometry x="84.91000000000003" y="712.87" width="20.25" height="19" as="geometry" />
        </mxCell>
        <mxCell id="iHsdo4Bu1vToOxYBje5i-118" value="" style="html=1;verticalLabelPosition=bottom;align=center;labelBackgroundColor=#ffffff;verticalAlign=top;strokeWidth=2;strokeColor=#000000;shadow=0;dashed=0;shape=mxgraph.ios7.icons.video_conversation;sketch=0;fillStyle=auto;fontFamily=Helvetica;fontSize=11;fontColor=#000000;fillColor=#FFFFFF;" vertex="1" parent="1">
          <mxGeometry x="964.5" y="64" width="30" height="15" as="geometry" />
        </mxCell>
        <mxCell id="iHsdo4Bu1vToOxYBje5i-119" style="edgeStyle=orthogonalEdgeStyle;rounded=0;orthogonalLoop=1;jettySize=auto;html=1;exitX=0.5;exitY=1;exitDx=0;exitDy=0;fontFamily=Helvetica;fontSize=11;fontColor=#000000;" edge="1" parent="1" source="iHsdo4Bu1vToOxYBje5i-111" target="iHsdo4Bu1vToOxYBje5i-111">
          <mxGeometry relative="1" as="geometry" />
        </mxCell>
        <mxCell id="iHsdo4Bu1vToOxYBje5i-120" value="" style="shape=image;html=1;verticalAlign=top;verticalLabelPosition=bottom;labelBackgroundColor=#ffffff;imageAspect=0;aspect=fixed;image=https://cdn0.iconfinder.com/data/icons/evericons-24px-vol-1/24/call-phone-128.png;sketch=0;fillStyle=auto;strokeColor=#000000;strokeWidth=4;fontFamily=Helvetica;fontSize=11;fontColor=#000000;fillColor=#FFFFFF;" vertex="1" parent="1">
          <mxGeometry x="1008" y="59.13" width="27.75" height="27.75" as="geometry" />
        </mxCell>
        <mxCell id="iHsdo4Bu1vToOxYBje5i-123" value="" style="shape=image;verticalLabelPosition=bottom;labelBackgroundColor=default;verticalAlign=top;aspect=fixed;imageAspect=0;image=data:image/png,iVBORw0KGgoAAAANSUhEUgAAAgAAAAIACAQAAABecRxxAAAReElEQVR42u3d72vV5R/H8dd+KNmmm78CSUOJthHdMS1SiWiNTM0UI5oUFpr9HUEERhQNuhV0IynKe4E3W0mFggvRWqLb17xjYf7C/dSZ2znfG3Fgyrbza+e8rutcz8f77m68ruvwfp/rfPY5nyMBAAAAAAAAAAAAAAAAAAAAAAAAAAAAAAAAAAAAAAAAAAAAAAAAAAAAAAAAAAAAAAAAAAAAAAAAAAAAAAAAAAAAAAAAAAAAABCfOncAVFGL2tSuDrVpjZrUpKVqkjSumxrXuC5pUOc1oEENu4OiWhgAKWjWM+pSl9arvqC/v6he9apXN93BAZSjVe/qZ00qW0JN6icdVKt7CQCKV68dOqLbJbX+9LqtI9pe4MkBQADqtVOnym796fWH9qnRvSwA+TTqHV2Y1+bP1f90gCEAhGyjfq1I8+fqjLa4lwhgJsvUo6mKtn9WWWV0WA+5lwrgXrt1o+LNn6vr2uVeLoCcRh1Spmrt/985oEcL3csGIK1TX1WbP1cntda9dCB1G3XV0v5ZZXVDm9zLB1LWqRFb+2eV1Zhecm8BkKo9mrC2f1ZZ3dFe9zYAKdpbhX/6FVJT6nZvBZCaFwJ498/Vv9rq3g4gJU9p1N7202ucy4FAtazTNXvL319X+acgUA0LdMLe7jNVH7cGAZX3qb3VZ6uP3VsD1LqXq3zTbzGV0W739gC1bGUVv/JTSl3XCvcWoRgN7gAoymfa7I4wpwe1TEfdIYDatCXg43+upviHIFAJjTpjb+9C6nceHAbMv4P21i609ru3CoXih0Fi0aBzeswdokB/qkOT7hAoBM97j0V3NO0vParX3BGAWlKnfvvBvpg6y1tLHHiZ4rBdT7gjFOVxvh8YBwZAHN5yByjaPncAFIKLgDFo0WUtcoco0oRWacgdAvlwAohBd3TtLz2gV90RkB8DIAZvuAOU5E13AOTHR4DwtehGlN/ZmNRyjbhDYG6cAML3XJTtLzXqWXcE5MMACN/z7gAJJk8GAyB8ne4ACSZPBtcAQteim9G+Shm1atQdAnPhBBC69mjbX6pXmzsC5sYACF27O0DC6RPAAAhd3C0Ud/oEMABCF3cLxZ0+AQyA0D3sDlCW1e4AmBsDIHRL3AHKstgdAHNjAISu2R2gLAyAwDEAQhd3C8WdPgEMgNBxAkAFMQCAhDEAQjfmDlAWbgQOHAMgdHG3UNzpE8AACB0nAFQQAyB0cT9ThwEQOAZA6P52ByjLX+4AmBsDIHQD7gAJp08AAyB0cbdQ3OkTwAAIXdwtFHf6BMT7tJlULNFQtK8SjwQLHieA0I2o3x2hZL/R/qFjAITvR3eAkv3gDoB8GADhO+YOkGDyZMT66TIl/DQYKoYTQPiGddwdoSS/0P7hYwDE4Gt3gJJ85Q6A/PgIEIMWXdYid4giTWiVhtwhkA8ngBgM66g7QtG+o/1jwACIw5fuAEU77A4A1I469SsbUZ3lrSUOvExxyOqQO0JR3lfGHQGF4CJgLBp0To+5QxTogjo05Q6BQnACiMWUPnRHKNgHtD8w3xp02v7ZvpA6FeV9i0DwntaUvb3z1ZQ2ubcJqFVf2Bs8X33u3iKgdq3QdXuLz1XXtNy9RUAt26GMvc1nq4x2ubcHqHWf2Bt9tvrIvTVA7VugE/ZWn6lOaqF7a4AUrNVVe7vfX1f0iHtbgFRs1Ii95afXiJ50bwmQkk5N2Ns+V3f0ons7gNR0B3Jb0JRed28FkKI9um1v/zvqdm8DkKpODVvbf1Rb3VsApGyDrtja/x9tcC8fSN0aHbe0f5/WuZcOQGrUe1W+IJhRD7f9AOF4pYpfE7qmne7lArjXUvVU4RyQ0WGtdC8VwEw2qK+i7X9am91LBDC7Bu3XYEWaf0Bv87AvIHz12qlT89r8/dqnRveyABSqTtv0rW6V3fq39I228fh4IEYtOqBjultS69/VMe1Xi3sJqCQmewqatEld6tL6An8H4qJ61avv+XnP2scASMlitatNHWrXajWrWa1qljSmIY1pTJc0qPMa0KBG3UEBAAAAAAAAAAAAAAAAAAAAAAAAAAAAAAAAAAAAAAAAAAAAAAAAAAAAAAAAAAAAAAAAAAAAAAAAAAAAAAAAAAAAAAAAAAAAAAAAAAAAAAAAAAAAAAAAAAAAAAAAAAAAAEBM6twBUEUtalO7OtSmNWpSk5aqSdK4bmpc47qkQZ3XgAY17A6KamEApKBZz6hLXVqv+oL+/qJ61ate3XQHB1COVr2rnzWpbAk1qZ90UK3uJQAoXr126Ihul9T60+u2jmh7gScHAAGo106dKrv1p9cf2qdG97IA5NOod3RhXps/V//TAYYAELKN+rUizZ+rM9riXiKAmSxTj6Yq2v5ZZZXRYT3kXiqAe+3WjYo3f66ua5d7uQByGnVImaq1/3/ngB4tdC8bgLROfVVt/lyd1Fr30oHUbdRVS/tnldUNbXIvH0hZp0Zs7Z9VVmN6yb0FQKr2aMLa/llldUd73dsApGhvFf7pV0hNqdu9FUBqXgjg3T9X/2qrezuAlDylUXvbT69xLgcC1bJO1+wtf39d5Z+CQDUs0Al7u89UfdwaBFTep/ZWn60+dm8NUOtervJNv8VURrvd2wPUspVV/MpPKXVdK9xbhGI0uAOgKJ9pszvCnB7UMh11hwBq05aAj/+5muIfgkAlNOqMvb0Lqd95cBgw/w7aW7vQ2u/eKhSKHwaJRYPO6TF3iAL9qQ5NukOgEDzvPRbd0bS/9Khec0cAakmd+u0H+2LqLG8tceBlisN2PeGOUJTH+X5gHBgAcXjLHaBo+9wBUAguAsagRZe1yB2iSBNapSF3COTDCSAG3dG1v/SAXnVHQH4MgBi84Q5QkjfdAZAfHwHC16IbUX5nY1LLNeIOgblxAgjfc1G2v9SoZ90RkA8DIHzPuwMkmDwZDIDwdboDJJg8GVwDCF2Lbkb7KmXUqlF3CMyFE0Do2qNtf6lebe4ImBsDIHTt7gAJp08AAyB0cbdQ3OkTwAAIXdwtFHf6BDAAQvewO0BZVrsDYG4MgNAtcQcoy2J3AMyNARC6ZneAsjAAAscACF3cLRR3+gQwAELHCQAVxAAAEsYACN2YO0BZuBE4cAyA0MXdQnGnTwADIHScAFBBDIDQxf1MHQZA4BgAofvbHaAsf7kDYG4MgNANuAMknD4BDIDQxd1CcadPAAMgdHG3UNzpExDv02ZSsURD0b5KPBIseJwAQjeifneEkv1G+4eOARC+H90BSvaDOwDyYQCE75g7QILJkxHrp8uU8NNgqBhOAOEb1nF3hJL8QvuHjwEQg6/dAUrylTsA8uMjQAxadFmL3CGKNKFVGnKHQD6cAGIwrKPuCEX7jvaPAQMgDl+6AxTtsDsAUDvq1K9sRHWWt5Y48DLFIatD7ghFeV8ZdwQUgouAsWjQOT3mDlGgC+rQlDsECsEJIBZT+tAdoWAf0P7AfGvQaftn+0LqVJT3LQLBe1pT9vbOV1Pa5N4moFZ9YW/wfPW5e4uA2rVC1+0tPldd03L3FgG1bIcy9jafrTLa5d4eoNZ9Ym/02eoj99YAtW+BTthbfaY6qYXurQFSsFZX7e1+f13RI+5tAVKxUSP2lp9eI3rSvSVASjo1YW/7XN3Ri+7tAFLTHchtQVN63b0VQIr26La9/e+o270NQKo6NWxt/1FtdW8BkLINumJr/3+0wb18IHVrdNzS/n1a5146AKlR71X5gmBGPdz2A4TjlSp+TeiadrqXC+BeS9VThXNARoe10r1UADPZoL6Ktv9pbXYvEcDsGrRfgxVp/gG9zcO+gPDVa6dOzWvz92ufGt3LAlCoOm3Tt7pVduvf0jfaxuPjgRi16ICO6W5JrX9Xx7RfLe4loJKY7Clo0iZ1qUvrC/wdiIvqVa++5+c9ax8DICWL1a42dahdq9WsZrWqWdKYhjSmMV3SoM5rQIMadQcFAAAAAAAAAAAAAAAAAAAAAAAAAAAAAAAAAAAAAAAAAAAAAAAAAAAAAAAAAAAAAAAAAAAAAAAAAAAAAAAAAAAAAAAAAAAAAAAAAAAAAAAAAAAAAAAAAAAAAAAAAAAAAAAxqXMHQBW1qE3t6lCb1qhJTVqqJknjuqlxjeuSBnVeAxrUsDsoqoUBkIJmPaMudWm96gv6+4vqVa96ddMdHEA5WvWuftaksiXUpH7SQbW6lwCgePXaoSO6XVLrT6/bOqLtBZ4cAASgXjt1quzWn15/aJ8a3csCkE+j3tGFeW3+XP1PBxgCQMg26teKNH+uzmiLe4kAZrJMPZqqaPtnlVVGh/WQe6kA7rVbNyre/Lm6rl3u5QLIadQhZarW/v+dA3q00L1sANI69VW1+XN1UmvdSwdSt1FXLe2fVVY3tMm9fCBlnRqxtX9WWY3pJfcWAKnaowlr+2eV1R3tdW8DkKK9VfinXyE1pW73VgCpeSGAd/9c/aut7u0AUvKURu1tP73GuRwIVMs6XbO3/P11lX8KAtWwQCfs7T5T9XFrEFB5n9pbfbb62L01QK17uco3/RZTGe12bw9Qy1ZW8Ss/pdR1rXBvEYrR4A6Aonymze4Ic3pQy3TUHQKoTVsCPv7naop/CAKV0Kgz9vYupH7nwWHA/Dtob+1Ca797q1AofhgkFg06p8fcIQr0pzo06Q6BQvC891h0R9P+0qN6zR0BqCV16rcf7Iups7y1xIGXKQ7b9YQ7QlEe5/uBcWAAxOEtd4Ci7XMHQCG4CBiDFl3WIneIIk1olYbcIZAPJ4AYdEfX/tIDetUdAfkxAGLwhjtASd50B0B+fAQIX4tuRPmdjUkt14g7BObGCSB8z0XZ/lKjnnVHQD4MgPA97w6QYPJkMADC1+kOkGDyZHANIHQtuhntq5RRq0bdITAXTgCha4+2/aV6tbkjYG4MgNC1uwMknD4BDIDQxd1CcadPAAMgdHG3UNzpE8AACN3D7gBlWe0OgLkxAEK3xB2gLIvdATA3BkDomt0BysIACBwDIHRxt1Dc6RPAAAgdJwBUEAMASBgDIHRj7gBl4UbgwDEAQhd3C8WdPgEMgNBxAkAFMQBCF/czdRgAgWMAhO5vd4Cy/OUOgLkxAEI34A6QcPoEMABCF3cLxZ0+AQyA0MXdQnGnT0C8T5tJxRINRfsq8Uiw4HECCN2I+t0RSvYb7R86BkD4fnQHKNkP7gDIhwEQvmPuAAkmT0asny5Twk+DoWI4AYRvWMfdEUryC+0fPgZADL52ByjJV+4AyI+PADFo0WUtcoco0oRWacgdAvlwAojBsI66IxTtO9o/BgyAOHzpDlC0w+4AQO2oU7+yEdVZ3lriwMsUh6wOuSMU5X1l3BFQCC4CxqJB5/SYO0SBLqhDU+4QKAQngFhM6UN3hIJ9QPsD861Bp+2f7QupU1HetwgE72lN2ds7X01pk3ubgFr1hb3B89Xn7i0CatcKXbe3+Fx1TcvdWwTUsh3K2Nt8tspol3t7gFr3ib3RZ6uP3FsD1L4FOmFv9ZnqpBa6twZIwVpdtbf7/XVFj7i3BUjFRo3YW356jehJ95YAKenUhL3tc3VHL7q3A0hNdyC3BU3pdfdWACnao9v29r+jbvc2AKnq1LC1/Ue11b0FQMo26Iqt/f/RBvfygdSt0XFL+/dpnXvpAKRGvVflC4IZ9XDbDxCOV6r4NaFr2uleLoB7LVVPFc4BGR3WSvdSAcxkg/oq2v6ntdm9RACza9B+DVak+Qf0Ng/7AsJXr506Na/N3699anQvC0Ch6rRN3+pW2a1/S99oG4+PB2LUogM6prsltf5dHdN+tbiXgEpisqegSZvUpS6tL/B3IC6qV736np/3rH0MgJQsVrva1KF2rVazmtWqZkljGtKYxnRJgzqvAQ1q1B0UAAAAAAAAAAAAAAAAAAAAAAAAAAAAAAAAAAAAAAAAAAAAAAAAAAAAAAAAAAAAAAAAAAAAAAAAAAAAAAAAAAAAAAAAAAAAAABgdv8H4yRVtg+gjgwAAAAASUVORK5CYII=;" vertex="1" parent="1">
          <mxGeometry x="1042" y="59.5" width="25.5" height="25.5" as="geometry" />
        </mxCell>
        <mxCell id="iHsdo4Bu1vToOxYBje5i-125" value="" style="rounded=1;whiteSpace=wrap;html=1;labelBackgroundColor=none;sketch=0;fillStyle=auto;strokeColor=#000000;strokeWidth=2;fontFamily=Helvetica;fontSize=11;fontColor=#000000;fillColor=#FFFFFF;movable=0;resizable=0;rotatable=0;deletable=0;editable=0;connectable=0;" vertex="1" parent="1">
          <mxGeometry x="798.12" y="443.5" width="231.75" height="29.5" as="geometry" />
        </mxCell>
        <mxCell id="iHsdo4Bu1vToOxYBje5i-127" value="" style="shape=ellipse;html=1;dashed=0;whitespace=wrap;perimeter=ellipsePerimeter;labelBackgroundColor=none;sketch=0;fillStyle=auto;strokeColor=#000000;strokeWidth=2;fontFamily=Helvetica;fontSize=11;fontColor=#000000;fillColor=#FFFFFF;" vertex="1" parent="1">
          <mxGeometry x="1035.75" y="436" width="44" height="44" as="geometry" />
        </mxCell>
        <mxCell id="iHsdo4Bu1vToOxYBje5i-126" value="" style="html=1;verticalLabelPosition=bottom;align=center;labelBackgroundColor=#ffffff;verticalAlign=top;strokeWidth=2;strokeColor=#000000;shadow=0;dashed=0;shape=mxgraph.ios7.icons.microphone;sketch=0;fillStyle=auto;fontFamily=Helvetica;fontSize=11;fontColor=#000000;fillColor=#FFFFFF;" vertex="1" parent="1">
          <mxGeometry x="1051.75" y="439.75" width="12" height="33" as="geometry" />
        </mxCell>
        <mxCell id="iHsdo4Bu1vToOxYBje5i-130" value="&lt;font style=&quot;font-size: 12px;&quot;&gt;Ketik Pesan&lt;/font&gt;" style="text;html=1;strokeColor=none;fillColor=none;align=center;verticalAlign=middle;whiteSpace=wrap;rounded=0;labelBackgroundColor=none;sketch=0;fillStyle=auto;strokeWidth=2;fontFamily=Helvetica;fontSize=11;fontColor=#000000;" vertex="1" parent="1">
          <mxGeometry x="798.12" y="443" width="87.5" height="30" as="geometry" />
        </mxCell>
        <mxCell id="iHsdo4Bu1vToOxYBje5i-134" value="" style="rounded=1;whiteSpace=wrap;html=1;gradientColor=none;gradientDirection=north;strokeColor=default;fillColor=#FFFFFF;fillStyle=auto;glass=0;shadow=0;sketch=0;container=0;verticalAlign=middle;imageAspect=1;movable=1;resizable=1;rotatable=1;deletable=1;editable=1;connectable=1;" vertex="1" parent="1">
          <mxGeometry x="1122" y="40" width="290" height="490" as="geometry" />
        </mxCell>
        <mxCell id="iHsdo4Bu1vToOxYBje5i-135" value="" style="shape=image;verticalLabelPosition=bottom;labelBackgroundColor=default;verticalAlign=top;aspect=fixed;imageAspect=0;image=data:image/png,iVBORw0KGgoAAAANSUhEUgAAAgAAAAIACAYAAAD0eNT6AAAABHNCSVQICAgIfAhkiAAAAAlwSFlzAAAOxAAADsQBlSsOGwAAABl0RVh0U29mdHdhcmUAd3d3Lmlua3NjYXBlLm9yZ5vuPBoAAA1ySURBVHic7d1PqKbXXQfw78xNGqPTiImG/okLm3YRsEZdCHZh24U01YVgQRpqadW46E4EF9loXbnRCoYKUtCU2IgVIRSMpiptsrGuXLhoa0yIGps/SsAktTMJM9fFO1duJpnMvTPPe897nu/nA4eBWf2es/l+z3nv+z4JAAAAAAAAAAAAAAAAAAAAAAAAAAAAAAAAAAAAAAAAAAAAAAAAAAAAAAAAAAAAAAAAAAAAAAAAAAAAAAAAAAAAAAAAAAAAAAAAAAAAAAAAAAAAAAAAAAAAAAAAAAAAAAAAAAAAAAAAAAAAAAAAAAAAAAAAAAAAAAAAAAAAAAAAAAAAAAAAAAAAAAAAAAAAAAAAAAAAAAAAAAAAAAAAAAAAAAAAAAAAAAAA8BqnRg8AE3trkvcneV+SO5LcfvH/vjfJi0m+k+TJJN9M8g9JHkvy3JBJAYBrspfk55N8KckrSfaPsc4neTTJPUluPOnBAYDjO53kl5I8nuOF/uXW80nujSIAADvrziRfyzLBf+l6MsmHT+5RAICj+FSSs9lO+B+sC0l+L8n1J/RMAMBlnE7yh9lu8F+6Hkly5iQeDgB4vb0kD+Rkw/9gfS1KAACcuL0kD2ZM+B++CfBxAACckJEn/0vX7275WQGA7MbJ//C6kOSurT4xAJTbpZP/4fVEku/a4nMDQK1dO/lfuu7d3qMDQKddPfkfXs8l+e5tbQAAtNn1k//h9atb2gMAqDLDyf/w+upWdgEAisx08j9Y55Pcuo3NAIAGs538D6+PbGE/gGKnRw8AJ+Qg/H9x9CBX6X2jBwCA2cx88j9YX1p8VwBgxWb8zP+N1j8vvTEAsFZrOPkfrH9beG8AYJXWcvI/WM8vuz0AsD5rOvkfrCcX3SEAWJm1nfwP1j8tuUkAvgbImuwluT/J3YPn2IYnRg8ArMt1oweAhRxc+68x/JPk66MHAIBds8bP/C9dH1pstwBgBdb6mf/hdTZeCQwA/6/h5L+f5C+X2jAAmF3Dyf9g/dxCewYAU2s5+e8nefzi8wJAtaaT/36Sjy+zbQAwr6aT/36Sf4zf6gCgXNvJ/ztJfniRnQOASbWd/PeT3LPIzgHApNpO/vtJ/mCRnQOASTWG/wPxuT8AxRqv/f883s8BQDHhDwBlhD8AlBH+AFBG+ANAGeEPAGWEPwCUEf4AUEb4A0AZ4Q8AZYQ/AJQR/gBQRvgDQBnhDwBlhD8AlBH+AFBG+ANAGeEPAGWEPwCUEf4AUEb4A0AZ4Q8AZYQ/AJQR/gBQRvgDQBnhDwBlhD8AlBH+AFBG+ANAGeEPAGWEPwCUEf4AUEb4A0AZ4Q8AZYQ/AJQR/gBQRvgDQBnhDwBlhD8AlBH+AFBG+ANAGeEPAGWEPwCUEf4AUEb4A0AZ4Q8AZYQ/AJQR/gBQRvgDQBnhDwBlhD8AlBH+AFBG+ANAGeEPAGWEPwCUEf4AUKYx/L8Y4Q9AMeEPAGWEPwCUEf4AUEb4A0AZ4Q8AZYQ/AJQR/gBQRvgDQBnhDwBlhD8AlBH+AFBG+ANAGeEPAGWEPwCUEf4AUEb4A0AZ4Q8AZYQ/AJQR/gBQRvgDQBnhDwBlhD8AlBH+AFBG+ANAGeEPAGWEPwCUEf4AUEb4A0AZ4Q8AZYQ/AJQR/gBQRvgDQBnhDwBlhD8AlBH+AFBG+ANAGeEPAGWEPwCUEf4AUEb4A0AZ4Q8AZYQ/AJQR/gBQRvgDQBnhDwBlhD8AlBH+AFBG+ANAGeEPAGWEPwCUEf4AUEb4A0AZ4Q8AZYQ/AJQR/gDwBk6NHmCLDsL/7tGDnKCnktyb5PzgOQBm8EqSbyd5Nsm/Jjk7dpyTtdYC0Bj+AFy9C0keT/KVJI8keTibgrBaaywAwh+Aa/VCks8n+UySpwfPshVrKwDCH4AlvZLks0k+neTFsaMsa00FQPgDsC3fSvLJJH87eI7F7I0eYCHCH4BtemuSj2VzcH5s8CyLWEMBEP4AnIRTST6Q5LYkf5XNV6+nNXsBOJXkj5J8YvQgANT48SQ/lOSh0YNci9kLwKeT/ProIQCoc2c2Xx18dPQgV2vmPwL8QJK/y/wlBoA5XUjy4SRfHj3I1Zi1ANyU5BtJ3j56EACq/WeSO5K8NHqQ45r19Pw7SX569BAA1LspyQ2Z8BZgxhuAH0zyRJLrRw8CAEnOJbk9m9uAaZwePcBV+LUIfwB2xw2Z8A/SZ7sBeEuSZ5LcPHoQADjkhSTvyOY2YAqz3QDcFeEPwO65OcmHRg9xHLMVgJ8ZPQAAXIYCsEU/NXoAALiMD44e4Dhm+huAG5O8nPlKCwAdzic5k+Ts6EGOYqYwfVfmmheALnvZfB1wCjMF6ttGDwAAV/ADowc4qpkKwJnRAwDAFdw0eoCjmqkATP3eZQDYJTMVgG+PHgAAruDF0QMc1UwF4NnRAwDAFfzX6AGOaqavAd6Q5H8zV2kBoIevAW7JuSTfGD0EAFzGNzNJ+CdzFYAkeWz0AABwGV8ZPcBxzFYAHh49AABcxiOjBziOmf4GIEmuz+Z1wLeMHgQADnkhyduTvDJ6kKOa7Qbg1ST3jx4CAC7xJ5ko/JP5bgCS5LYkTyR5y+hBACCbP/y7Pcm3Rg9yHLPdACTJ00nuGz0EAFx0XyYL/2TOG4Bk81vLX0/yjtGDAFDt6SR3ZPO6+qnMeAOQbH5q8WPZ/OgCAIxwIckvZ8LwTzbvLp7VUxf//eDIIQCo9ZuZ+A/TZy4ASfJoku9P8hOjBwGgyueS/MboIa7F7AUgSb6c5D1J3jt6EAAqfC7JpzL5a+rXUAD2kzwUJQCA7Tqf5LeyOflPHf7JOgpAogQAsF1PJ/lIks+PHmQpaykAiRIAwPLOJvn9JL+Qzdv+VmPW3wF4M3tJHkhy9+hBAJjWf2dz2v9MJvyRn6NYYwFIlAAAjud8kn/J5pW+f5PNm/2m+m3/41prAUg6S8BTSe6NH0gCOIpz2fyIz7PZvGPm3NhxWNJBCdgvWl9Mct0SmwcAM1MCAKCUEgAApZQAACilBABAKSUAAEopAQBQSgkAgFJKAACUUgIAoJQSAACllAAAKKUEAEApJQAASikBAFBKCQCAUkoAAJRSAgCglBIAAKWUAAAopQQAQCklAABKKQEAUEoJAIBSSgAAlFICAKCUEgAApZQAACilBABAKSUAAEopAQBQSgkAgFJKAACUUgIAoJQSAACllAAAKKUEAEApJQAASikBAFBKCQCAUkoAAJRSAgCglBIAAKWUAAAopQQAQCklAABKKQEAUEoJAIBSSgAAlFICAKCUEgAApZQAACilBABAKSUAAEopAQBQSgkAgFJKAACUUgIAoJQSAACllAAAKKUEAEApJQAASikBAFBKCQCAUkoAAJRSAgCglBIAAKWUAAAopQQAQCklAABKKQEAUEoJAIBSSgAAlFICAKCUEgAApZQAACilBABAKSUAAEopAQBQSgkAgFJKAACUUgIAoJQSAACllAAAKKUEAEApJQAASikBAFBKCQCAUkoAAJRSAgCglBIAAKWUAAAopQQAQCklAABKKQEAUEoJAIBSSgAAlFICAKCUEgAApZQAACilBABAKSUAAEopAQBQSgkAgFJKAACUUgIAoJQSAACllAAAKKUEAEApJQAASikBAFBKCQCAUntJHsz4YD7JdX+SUwvsHcCb2hs9ALyJ/SQPJXlPkvcOnuWk/Gg2BeCrg+cAgOHaPg64kORnF9k5AJhc28cBzyS5ZZGdA3gDPgJgFgcfB7wryY8MnuUknElyY5K/Hj0IAOyCppuAV5O8e5ltA3gtNwDMpukm4HQ2Xwt8ePQgALArWm4CXs7m4wAA4KKWbwd8dKkNA4C1aLgJ+MJiuwUAK7L2m4D/WG6rAGBd1n4TcOtyWwUA67Lmm4CfXHCfAHJ69ACwoPNJPpnkzwbPsQ3vHD0AsC4KAGtzPsnHk/zp6EEW9j2jBwDWRQFgjdZ4E+BHu4BFKQCs1dpuAl4cPQAAzGQt3w54/9IbAwBrt4ZvB7xt8V0BgAIz3wQ8v4X9AIAas94E/MU2NgMAmsx4E3DPVnYCAMrMdBNwLsnN29kGAOgzy03Ag9vaAABoNcNNwI9t7ekBoNgu3wSs6ZcMAWDn7GIJeCnJbdt8aABg9z4O+MR2HxcAOLArNwF/vO0HBQBea/RNwN8nuWHrTwkAvM5ekvtz8uH/SJIz2388AOByTiX57SQXcnLX/tefyJMBAFd0V5Jnsr3gfyn+4A8AdtItSe5L8mqWC/4L2XzP/50n+BwAwFV4d5LPJnk5Vx/8Z7P5psGdJzw7AHCNziT5aJIvJPn3XDn0n8/mlb6/kuT7BswL8DqnRg8AK3Brktuzuc4/k+S6JP+T5Lkkj2fzNwQAAAAAAAAAAAAAAAAAAAAAAAAAAAAAAAAAAAAAAAAAAAAAAAAAAAAAAAAAAAAAAAAAAAAAAAAAAAAAAAAAAAAAAAAAAAAAAAAAAAAAAAAAAAAAAAAAAAAAAAAAAAAAAAAAAAAAAAAAAAAAAAAAAAAAAAAAAAAAAAAAAAAAAAAAAAAAAAAAAAAAAAAAAAAAAAAAAAAAAAAAAAAAAAAAAAAAAAAAAAAAAAAAwC77P+Bw15A8seuVAAAAAElFTkSuQmCC;" vertex="1" parent="1">
          <mxGeometry x="1133" y="60" width="27.5" height="27.5" as="geometry" />
        </mxCell>
        <mxCell id="iHsdo4Bu1vToOxYBje5i-136" value="" style="ellipse;whiteSpace=wrap;html=1;aspect=fixed;shadow=0;glass=0;sketch=0;fillStyle=auto;strokeColor=#000000;fontSize=11;fillColor=default;gradientColor=none;gradientDirection=north;" vertex="1" parent="1">
          <mxGeometry x="1160.5" y="51" width="44" height="44" as="geometry" />
        </mxCell>
        <mxCell id="iHsdo4Bu1vToOxYBje5i-137" value="" style="shape=actor;whiteSpace=wrap;html=1;rounded=0;shadow=0;glass=0;sketch=0;fillStyle=auto;strokeColor=#000000;fontSize=11;fillColor=#000000;gradientColor=none;gradientDirection=north;" vertex="1" parent="1">
          <mxGeometry x="1167.29" y="56.5" width="30.42" height="33" as="geometry" />
        </mxCell>
        <mxCell id="iHsdo4Bu1vToOxYBje5i-138" value="&lt;font size=&quot;1&quot; style=&quot;&quot; face=&quot;Comic Sans MS&quot;&gt;&lt;b style=&quot;font-size: 16px;&quot;&gt;Person 1&lt;/b&gt;&lt;/font&gt;" style="text;html=1;strokeColor=none;fillColor=none;align=center;verticalAlign=middle;whiteSpace=wrap;rounded=0;shadow=0;glass=0;sketch=0;fillStyle=auto;fontSize=11;" vertex="1" parent="1">
          <mxGeometry x="1204.5" y="56.5" width="79" height="33" as="geometry" />
        </mxCell>
        <mxCell id="iHsdo4Bu1vToOxYBje5i-139" value="" style="line;strokeWidth=1;fillColor=none;align=left;verticalAlign=middle;spacingTop=-1;spacingLeft=3;spacingRight=3;rotatable=0;labelPosition=right;points=[];portConstraint=eastwest;strokeColor=inherit;fillStyle=auto;fontFamily=Verdana;fontSize=11;fontColor=#00994D;" vertex="1" parent="1">
          <mxGeometry x="1122" y="100" width="290" height="8" as="geometry" />
        </mxCell>
        <mxCell id="iHsdo4Bu1vToOxYBje5i-140" value="" style="html=1;verticalLabelPosition=bottom;align=center;labelBackgroundColor=#ffffff;verticalAlign=top;strokeWidth=2;strokeColor=#000000;shadow=0;dashed=0;shape=mxgraph.ios7.icons.video_conversation;sketch=0;fillStyle=auto;fontFamily=Helvetica;fontSize=11;fontColor=#000000;fillColor=#FFFFFF;" vertex="1" parent="1">
          <mxGeometry x="1294.5" y="64" width="30" height="15" as="geometry" />
        </mxCell>
        <mxCell id="iHsdo4Bu1vToOxYBje5i-141" style="edgeStyle=orthogonalEdgeStyle;rounded=0;orthogonalLoop=1;jettySize=auto;html=1;exitX=0.5;exitY=1;exitDx=0;exitDy=0;fontFamily=Helvetica;fontSize=11;fontColor=#000000;" edge="1" parent="1" source="iHsdo4Bu1vToOxYBje5i-138" target="iHsdo4Bu1vToOxYBje5i-138">
          <mxGeometry relative="1" as="geometry" />
        </mxCell>
        <mxCell id="iHsdo4Bu1vToOxYBje5i-142" value="" style="shape=image;html=1;verticalAlign=top;verticalLabelPosition=bottom;labelBackgroundColor=#ffffff;imageAspect=0;aspect=fixed;image=https://cdn0.iconfinder.com/data/icons/evericons-24px-vol-1/24/call-phone-128.png;sketch=0;fillStyle=auto;strokeColor=#000000;strokeWidth=4;fontFamily=Helvetica;fontSize=11;fontColor=#000000;fillColor=#FFFFFF;" vertex="1" parent="1">
          <mxGeometry x="1338" y="59.129999999999995" width="27.75" height="27.75" as="geometry" />
        </mxCell>
        <mxCell id="iHsdo4Bu1vToOxYBje5i-143" value="" style="shape=image;verticalLabelPosition=bottom;labelBackgroundColor=default;verticalAlign=top;aspect=fixed;imageAspect=0;image=data:image/png,iVBORw0KGgoAAAANSUhEUgAAAgAAAAIACAQAAABecRxxAAAReElEQVR42u3d72vV5R/H8dd+KNmmm78CSUOJthHdMS1SiWiNTM0UI5oUFpr9HUEERhQNuhV0IynKe4E3W0mFggvRWqLb17xjYf7C/dSZ2znfG3Fgyrbza+e8rutcz8f77m68ruvwfp/rfPY5nyMBAAAAAAAAAAAAAAAAAAAAAAAAAAAAAAAAAAAAAAAAAAAAAAAAAAAAAAAAAAAAAAAAAAAAAAAAAAAAAAAAAAAAAAAAAAAAABCfOncAVFGL2tSuDrVpjZrUpKVqkjSumxrXuC5pUOc1oEENu4OiWhgAKWjWM+pSl9arvqC/v6he9apXN93BAZSjVe/qZ00qW0JN6icdVKt7CQCKV68dOqLbJbX+9LqtI9pe4MkBQADqtVOnym796fWH9qnRvSwA+TTqHV2Y1+bP1f90gCEAhGyjfq1I8+fqjLa4lwhgJsvUo6mKtn9WWWV0WA+5lwrgXrt1o+LNn6vr2uVeLoCcRh1Spmrt/985oEcL3csGIK1TX1WbP1cntda9dCB1G3XV0v5ZZXVDm9zLB1LWqRFb+2eV1Zhecm8BkKo9mrC2f1ZZ3dFe9zYAKdpbhX/6FVJT6nZvBZCaFwJ498/Vv9rq3g4gJU9p1N7202ucy4FAtazTNXvL319X+acgUA0LdMLe7jNVH7cGAZX3qb3VZ6uP3VsD1LqXq3zTbzGV0W739gC1bGUVv/JTSl3XCvcWoRgN7gAoymfa7I4wpwe1TEfdIYDatCXg43+upviHIFAJjTpjb+9C6nceHAbMv4P21i609ru3CoXih0Fi0aBzeswdokB/qkOT7hAoBM97j0V3NO0vParX3BGAWlKnfvvBvpg6y1tLHHiZ4rBdT7gjFOVxvh8YBwZAHN5yByjaPncAFIKLgDFo0WUtcoco0oRWacgdAvlwAohBd3TtLz2gV90RkB8DIAZvuAOU5E13AOTHR4DwtehGlN/ZmNRyjbhDYG6cAML3XJTtLzXqWXcE5MMACN/z7gAJJk8GAyB8ne4ACSZPBtcAQteim9G+Shm1atQdAnPhBBC69mjbX6pXmzsC5sYACF27O0DC6RPAAAhd3C0Ud/oEMABCF3cLxZ0+AQyA0D3sDlCW1e4AmBsDIHRL3AHKstgdAHNjAISu2R2gLAyAwDEAQhd3C8WdPgEMgNBxAkAFMQCAhDEAQjfmDlAWbgQOHAMgdHG3UNzpE8AACB0nAFQQAyB0cT9ThwEQOAZA6P52ByjLX+4AmBsDIHQD7gAJp08AAyB0cbdQ3OkTwAAIXdwtFHf6BMT7tJlULNFQtK8SjwQLHieA0I2o3x2hZL/R/qFjAITvR3eAkv3gDoB8GADhO+YOkGDyZMT66TIl/DQYKoYTQPiGddwdoSS/0P7hYwDE4Gt3gJJ85Q6A/PgIEIMWXdYid4giTWiVhtwhkA8ngBgM66g7QtG+o/1jwACIw5fuAEU77A4A1I469SsbUZ3lrSUOvExxyOqQO0JR3lfGHQGF4CJgLBp0To+5QxTogjo05Q6BQnACiMWUPnRHKNgHtD8w3xp02v7ZvpA6FeV9i0DwntaUvb3z1ZQ2ubcJqFVf2Bs8X33u3iKgdq3QdXuLz1XXtNy9RUAt26GMvc1nq4x2ubcHqHWf2Bt9tvrIvTVA7VugE/ZWn6lOaqF7a4AUrNVVe7vfX1f0iHtbgFRs1Ii95afXiJ50bwmQkk5N2Ns+V3f0ons7gNR0B3Jb0JRed28FkKI9um1v/zvqdm8DkKpODVvbf1Rb3VsApGyDrtja/x9tcC8fSN0aHbe0f5/WuZcOQGrUe1W+IJhRD7f9AOF4pYpfE7qmne7lArjXUvVU4RyQ0WGtdC8VwEw2qK+i7X9am91LBDC7Bu3XYEWaf0Bv87AvIHz12qlT89r8/dqnRveyABSqTtv0rW6V3fq39I228fh4IEYtOqBjultS69/VMe1Xi3sJqCQmewqatEld6tL6An8H4qJ61avv+XnP2scASMlitatNHWrXajWrWa1qljSmIY1pTJc0qPMa0KBG3UEBAAAAAAAAAAAAAAAAAAAAAAAAAAAAAAAAAAAAAAAAAAAAAAAAAAAAAAAAAAAAAAAAAAAAAAAAAAAAAAAAAAAAAAAAAAAAAAAAAAAAAAAAAAAAAAAAAAAAAAAAAAAAAEBM6twBUEUtalO7OtSmNWpSk5aqSdK4bmpc47qkQZ3XgAY17A6KamEApKBZz6hLXVqv+oL+/qJ61ate3XQHB1COVr2rnzWpbAk1qZ90UK3uJQAoXr126Ihul9T60+u2jmh7gScHAAGo106dKrv1p9cf2qdG97IA5NOod3RhXps/V//TAYYAELKN+rUizZ+rM9riXiKAmSxTj6Yq2v5ZZZXRYT3kXiqAe+3WjYo3f66ua5d7uQByGnVImaq1/3/ngB4tdC8bgLROfVVt/lyd1Fr30oHUbdRVS/tnldUNbXIvH0hZp0Zs7Z9VVmN6yb0FQKr2aMLa/llldUd73dsApGhvFf7pV0hNqdu9FUBqXgjg3T9X/2qrezuAlDylUXvbT69xLgcC1bJO1+wtf39d5Z+CQDUs0Al7u89UfdwaBFTep/ZWn60+dm8NUOtervJNv8VURrvd2wPUspVV/MpPKXVdK9xbhGI0uAOgKJ9pszvCnB7UMh11hwBq05aAj/+5muIfgkAlNOqMvb0Lqd95cBgw/w7aW7vQ2u/eKhSKHwaJRYPO6TF3iAL9qQ5NukOgEDzvPRbd0bS/9Khec0cAakmd+u0H+2LqLG8tceBlisN2PeGOUJTH+X5gHBgAcXjLHaBo+9wBUAguAsagRZe1yB2iSBNapSF3COTDCSAG3dG1v/SAXnVHQH4MgBi84Q5QkjfdAZAfHwHC16IbUX5nY1LLNeIOgblxAgjfc1G2v9SoZ90RkA8DIHzPuwMkmDwZDIDwdboDJJg8GVwDCF2Lbkb7KmXUqlF3CMyFE0Do2qNtf6lebe4ImBsDIHTt7gAJp08AAyB0cbdQ3OkTwAAIXdwtFHf6BDAAQvewO0BZVrsDYG4MgNAtcQcoy2J3AMyNARC6ZneAsjAAAscACF3cLRR3+gQwAELHCQAVxAAAEsYACN2YO0BZuBE4cAyA0MXdQnGnTwADIHScAFBBDIDQxf1MHQZA4BgAofvbHaAsf7kDYG4MgNANuAMknD4BDIDQxd1CcadPAAMgdHG3UNzpExDv02ZSsURD0b5KPBIseJwAQjeifneEkv1G+4eOARC+H90BSvaDOwDyYQCE75g7QILJkxHrp8uU8NNgqBhOAOEb1nF3hJL8QvuHjwEQg6/dAUrylTsA8uMjQAxadFmL3CGKNKFVGnKHQD6cAGIwrKPuCEX7jvaPAQMgDl+6AxTtsDsAUDvq1K9sRHWWt5Y48DLFIatD7ghFeV8ZdwQUgouAsWjQOT3mDlGgC+rQlDsECsEJIBZT+tAdoWAf0P7AfGvQaftn+0LqVJT3LQLBe1pT9vbOV1Pa5N4moFZ9YW/wfPW5e4uA2rVC1+0tPldd03L3FgG1bIcy9jafrTLa5d4eoNZ9Ym/02eoj99YAtW+BTthbfaY6qYXurQFSsFZX7e1+f13RI+5tAVKxUSP2lp9eI3rSvSVASjo1YW/7XN3Ri+7tAFLTHchtQVN63b0VQIr26La9/e+o270NQKo6NWxt/1FtdW8BkLINumJr/3+0wb18IHVrdNzS/n1a5146AKlR71X5gmBGPdz2A4TjlSp+TeiadrqXC+BeS9VThXNARoe10r1UADPZoL6Ktv9pbXYvEcDsGrRfgxVp/gG9zcO+gPDVa6dOzWvz92ufGt3LAlCoOm3Tt7pVduvf0jfaxuPjgRi16ICO6W5JrX9Xx7RfLe4loJKY7Clo0iZ1qUvrC/wdiIvqVa++5+c9ax8DICWL1a42dahdq9WsZrWqWdKYhjSmMV3SoM5rQIMadQcFAAAAAAAAAAAAAAAAAAAAAAAAAAAAAAAAAAAAAAAAAAAAAAAAAAAAAAAAAAAAAAAAAAAAAAAAAAAAAAAAAAAAAAAAAAAAAAAAAAAAAAAAAAAAAAAAAAAAAAAAAAAAAAAxqXMHQBW1qE3t6lCb1qhJTVqqJknjuqlxjeuSBnVeAxrUsDsoqoUBkIJmPaMudWm96gv6+4vqVa96ddMdHEA5WvWuftaksiXUpH7SQbW6lwCgePXaoSO6XVLrT6/bOqLtBZ4cAASgXjt1quzWn15/aJ8a3csCkE+j3tGFeW3+XP1PBxgCQMg26teKNH+uzmiLe4kAZrJMPZqqaPtnlVVGh/WQe6kA7rVbNyre/Lm6rl3u5QLIadQhZarW/v+dA3q00L1sANI69VW1+XN1UmvdSwdSt1FXLe2fVVY3tMm9fCBlnRqxtX9WWY3pJfcWAKnaowlr+2eV1R3tdW8DkKK9VfinXyE1pW73VgCpeSGAd/9c/aut7u0AUvKURu1tP73GuRwIVMs6XbO3/P11lX8KAtWwQCfs7T5T9XFrEFB5n9pbfbb62L01QK17uco3/RZTGe12bw9Qy1ZW8Ss/pdR1rXBvEYrR4A6Aonymze4Ic3pQy3TUHQKoTVsCPv7naop/CAKV0Kgz9vYupH7nwWHA/Dtob+1Ca797q1AofhgkFg06p8fcIQr0pzo06Q6BQvC891h0R9P+0qN6zR0BqCV16rcf7Iups7y1xIGXKQ7b9YQ7QlEe5/uBcWAAxOEtd4Ci7XMHQCG4CBiDFl3WIneIIk1olYbcIZAPJ4AYdEfX/tIDetUdAfkxAGLwhjtASd50B0B+fAQIX4tuRPmdjUkt14g7BObGCSB8z0XZ/lKjnnVHQD4MgPA97w6QYPJkMADC1+kOkGDyZHANIHQtuhntq5RRq0bdITAXTgCha4+2/aV6tbkjYG4MgNC1uwMknD4BDIDQxd1CcadPAAMgdHG3UNzpE8AACN3D7gBlWe0OgLkxAEK3xB2gLIvdATA3BkDomt0BysIACBwDIHRxt1Dc6RPAAAgdJwBUEAMASBgDIHRj7gBl4UbgwDEAQhd3C8WdPgEMgNBxAkAFMQBCF/czdRgAgWMAhO5vd4Cy/OUOgLkxAEI34A6QcPoEMABCF3cLxZ0+AQyA0MXdQnGnT0C8T5tJxRINRfsq8Uiw4HECCN2I+t0RSvYb7R86BkD4fnQHKNkP7gDIhwEQvmPuAAkmT0asny5Twk+DoWI4AYRvWMfdEUryC+0fPgZADL52ByjJV+4AyI+PADFo0WUtcoco0oRWacgdAvlwAojBsI66IxTtO9o/BgyAOHzpDlC0w+4AQO2oU7+yEdVZ3lriwMsUh6wOuSMU5X1l3BFQCC4CxqJB5/SYO0SBLqhDU+4QKAQngFhM6UN3hIJ9QPsD861Bp+2f7QupU1HetwgE72lN2ds7X01pk3ubgFr1hb3B89Xn7i0CatcKXbe3+Fx1TcvdWwTUsh3K2Nt8tspol3t7gFr3ib3RZ6uP3FsD1L4FOmFv9ZnqpBa6twZIwVpdtbf7/XVFj7i3BUjFRo3YW356jehJ95YAKenUhL3tc3VHL7q3A0hNdyC3BU3pdfdWACnao9v29r+jbvc2AKnq1LC1/Ue11b0FQMo26Iqt/f/RBvfygdSt0XFL+/dpnXvpAKRGvVflC4IZ9XDbDxCOV6r4NaFr2uleLoB7LVVPFc4BGR3WSvdSAcxkg/oq2v6ntdm9RACza9B+DVak+Qf0Ng/7AsJXr506Na/N3699anQvC0Ch6rRN3+pW2a1/S99oG4+PB2LUogM6prsltf5dHdN+tbiXgEpisqegSZvUpS6tL/B3IC6qV736np/3rH0MgJQsVrva1KF2rVazmtWqZkljGtKYxnRJgzqvAQ1q1B0UAAAAAAAAAAAAAAAAAAAAAAAAAAAAAAAAAAAAAAAAAAAAAAAAAAAAAAAAAAAAAAAAAAAAAAAAAAAAAAAAAAAAAAAAAAAAAABgdv8H4yRVtg+gjgwAAAAASUVORK5CYII=;" vertex="1" parent="1">
          <mxGeometry x="1372" y="59.5" width="25.5" height="25.5" as="geometry" />
        </mxCell>
        <mxCell id="iHsdo4Bu1vToOxYBje5i-144" value="" style="rounded=1;whiteSpace=wrap;html=1;labelBackgroundColor=none;sketch=0;fillStyle=auto;strokeColor=#000000;strokeWidth=2;fontFamily=Helvetica;fontSize=11;fontColor=#000000;fillColor=#FFFFFF;" vertex="1" parent="1">
          <mxGeometry x="1128.1299999999999" y="319" width="231.75" height="29.5" as="geometry" />
        </mxCell>
        <mxCell id="iHsdo4Bu1vToOxYBje5i-147" value="&lt;span style=&quot;font-size: 12px;&quot;&gt;Hallo, Selamat pagi&lt;/span&gt;" style="text;html=1;strokeColor=none;fillColor=none;align=center;verticalAlign=middle;whiteSpace=wrap;rounded=0;labelBackgroundColor=none;sketch=0;fillStyle=auto;strokeWidth=2;fontFamily=Helvetica;fontSize=11;fontColor=#000000;" vertex="1" parent="1">
          <mxGeometry x="1128.13" y="319" width="114.87" height="30" as="geometry" />
        </mxCell>
        <mxCell id="iHsdo4Bu1vToOxYBje5i-149" value="" style="verticalLabelPosition=bottom;verticalAlign=top;html=1;shadow=0;dashed=0;strokeWidth=1;shape=mxgraph.android.keyboard;sketch=0;fontFamily=Times New Roman;fillColor=#FFFFFF;" vertex="1" parent="1">
          <mxGeometry x="1124" y="352" width="286" height="132" as="geometry" />
        </mxCell>
        <mxCell id="iHsdo4Bu1vToOxYBje5i-151" value="" style="shape=ellipse;html=1;dashed=0;whitespace=wrap;perimeter=ellipsePerimeter;labelBackgroundColor=none;sketch=0;fillStyle=auto;strokeColor=#000000;strokeWidth=2;fontFamily=Helvetica;fontSize=11;fontColor=#000000;fillColor=#FFFFFF;" vertex="1" parent="1">
          <mxGeometry x="1365.75" y="308" width="44" height="40.5" as="geometry" />
        </mxCell>
        <mxCell id="iHsdo4Bu1vToOxYBje5i-150" value="" style="html=1;verticalLabelPosition=bottom;align=center;labelBackgroundColor=#ffffff;verticalAlign=top;strokeWidth=2;strokeColor=#000000;shadow=0;dashed=0;shape=mxgraph.ios7.icons.pointer;sketch=0;fillStyle=auto;fontFamily=Helvetica;fontSize=12;fontColor=#000000;fillColor=#FFFFFF;rotation=45;" vertex="1" parent="1">
          <mxGeometry x="1369.0900000000001" y="313.83" width="31.32" height="28.84" as="geometry" />
        </mxCell>
        <mxCell id="iHsdo4Bu1vToOxYBje5i-152" value="" style="rounded=1;whiteSpace=wrap;html=1;gradientColor=none;gradientDirection=north;strokeColor=default;fillColor=#FFFFFF;fillStyle=auto;glass=0;shadow=0;sketch=0;container=0;verticalAlign=middle;imageAspect=1;movable=0;resizable=0;rotatable=0;deletable=0;editable=0;connectable=0;" vertex="1" parent="1">
          <mxGeometry x="1441" y="40" width="290" height="490" as="geometry" />
        </mxCell>
        <mxCell id="iHsdo4Bu1vToOxYBje5i-153" value="" style="shape=image;verticalLabelPosition=bottom;labelBackgroundColor=default;verticalAlign=top;aspect=fixed;imageAspect=0;image=data:image/png,iVBORw0KGgoAAAANSUhEUgAAAgAAAAIACAYAAAD0eNT6AAAABHNCSVQICAgIfAhkiAAAAAlwSFlzAAAOxAAADsQBlSsOGwAAABl0RVh0U29mdHdhcmUAd3d3Lmlua3NjYXBlLm9yZ5vuPBoAAA1ySURBVHic7d1PqKbXXQfw78xNGqPTiImG/okLm3YRsEZdCHZh24U01YVgQRpqadW46E4EF9loXbnRCoYKUtCU2IgVIRSMpiptsrGuXLhoa0yIGps/SsAktTMJM9fFO1duJpnMvTPPe897nu/nA4eBWf2es/l+z3nv+z4JAAAAAAAAAAAAAAAAAAAAAAAAAAAAAAAAAAAAAAAAAAAAAAAAAAAAAAAAAAAAAAAAAAAAAAAAAAAAAAAAAAAAAAAAAAAAAAAAAAAAAAAAAAAAAAAAAAAAAAAAAAAAAAAAAAAAAAAAAAAAAAAAAAAAAAAAAAAAAAAAAAAAAAAAAAAAAAAAAAAAAAAAAAAAAAAAAAAAAAAAAAAAAAAAAAAAAAAAAAAAAAAA8BqnRg8AE3trkvcneV+SO5LcfvH/vjfJi0m+k+TJJN9M8g9JHkvy3JBJAYBrspfk55N8KckrSfaPsc4neTTJPUluPOnBAYDjO53kl5I8nuOF/uXW80nujSIAADvrziRfyzLBf+l6MsmHT+5RAICj+FSSs9lO+B+sC0l+L8n1J/RMAMBlnE7yh9lu8F+6Hkly5iQeDgB4vb0kD+Rkw/9gfS1KAACcuL0kD2ZM+B++CfBxAACckJEn/0vX7275WQGA7MbJ//C6kOSurT4xAJTbpZP/4fVEku/a4nMDQK1dO/lfuu7d3qMDQKddPfkfXs8l+e5tbQAAtNn1k//h9atb2gMAqDLDyf/w+upWdgEAisx08j9Y55Pcuo3NAIAGs538D6+PbGE/gGKnRw8AJ+Qg/H9x9CBX6X2jBwCA2cx88j9YX1p8VwBgxWb8zP+N1j8vvTEAsFZrOPkfrH9beG8AYJXWcvI/WM8vuz0AsD5rOvkfrCcX3SEAWJm1nfwP1j8tuUkAvgbImuwluT/J3YPn2IYnRg8ArMt1oweAhRxc+68x/JPk66MHAIBds8bP/C9dH1pstwBgBdb6mf/hdTZeCQwA/6/h5L+f5C+X2jAAmF3Dyf9g/dxCewYAU2s5+e8nefzi8wJAtaaT/36Sjy+zbQAwr6aT/36Sf4zf6gCgXNvJ/ztJfniRnQOASbWd/PeT3LPIzgHApNpO/vtJ/mCRnQOASTWG/wPxuT8AxRqv/f883s8BQDHhDwBlhD8AlBH+AFBG+ANAGeEPAGWEPwCUEf4AUEb4A0AZ4Q8AZYQ/AJQR/gBQRvgDQBnhDwBlhD8AlBH+AFBG+ANAGeEPAGWEPwCUEf4AUEb4A0AZ4Q8AZYQ/AJQR/gBQRvgDQBnhDwBlhD8AlBH+AFBG+ANAGeEPAGWEPwCUEf4AUEb4A0AZ4Q8AZYQ/AJQR/gBQRvgDQBnhDwBlhD8AlBH+AFBG+ANAGeEPAGWEPwCUEf4AUEb4A0AZ4Q8AZYQ/AJQR/gBQRvgDQBnhDwBlhD8AlBH+AFBG+ANAGeEPAGWEPwCUEf4AUKYx/L8Y4Q9AMeEPAGWEPwCUEf4AUEb4A0AZ4Q8AZYQ/AJQR/gBQRvgDQBnhDwBlhD8AlBH+AFBG+ANAGeEPAGWEPwCUEf4AUEb4A0AZ4Q8AZYQ/AJQR/gBQRvgDQBnhDwBlhD8AlBH+AFBG+ANAGeEPAGWEPwCUEf4AUEb4A0AZ4Q8AZYQ/AJQR/gBQRvgDQBnhDwBlhD8AlBH+AFBG+ANAGeEPAGWEPwCUEf4AUEb4A0AZ4Q8AZYQ/AJQR/gBQRvgDQBnhDwBlhD8AlBH+AFBG+ANAGeEPAGWEPwCUEf4AUEb4A0AZ4Q8AZYQ/AJQR/gDwBk6NHmCLDsL/7tGDnKCnktyb5PzgOQBm8EqSbyd5Nsm/Jjk7dpyTtdYC0Bj+AFy9C0keT/KVJI8keTibgrBaaywAwh+Aa/VCks8n+UySpwfPshVrKwDCH4AlvZLks0k+neTFsaMsa00FQPgDsC3fSvLJJH87eI7F7I0eYCHCH4BtemuSj2VzcH5s8CyLWEMBEP4AnIRTST6Q5LYkf5XNV6+nNXsBOJXkj5J8YvQgANT48SQ/lOSh0YNci9kLwKeT/ProIQCoc2c2Xx18dPQgV2vmPwL8QJK/y/wlBoA5XUjy4SRfHj3I1Zi1ANyU5BtJ3j56EACq/WeSO5K8NHqQ45r19Pw7SX569BAA1LspyQ2Z8BZgxhuAH0zyRJLrRw8CAEnOJbk9m9uAaZwePcBV+LUIfwB2xw2Z8A/SZ7sBeEuSZ5LcPHoQADjkhSTvyOY2YAqz3QDcFeEPwO65OcmHRg9xHLMVgJ8ZPQAAXIYCsEU/NXoAALiMD44e4Dhm+huAG5O8nPlKCwAdzic5k+Ts6EGOYqYwfVfmmheALnvZfB1wCjMF6ttGDwAAV/ADowc4qpkKwJnRAwDAFdw0eoCjmqkATP3eZQDYJTMVgG+PHgAAruDF0QMc1UwF4NnRAwDAFfzX6AGOaqavAd6Q5H8zV2kBoIevAW7JuSTfGD0EAFzGNzNJ+CdzFYAkeWz0AABwGV8ZPcBxzFYAHh49AABcxiOjBziOmf4GIEmuz+Z1wLeMHgQADnkhyduTvDJ6kKOa7Qbg1ST3jx4CAC7xJ5ko/JP5bgCS5LYkTyR5y+hBACCbP/y7Pcm3Rg9yHLPdACTJ00nuGz0EAFx0XyYL/2TOG4Bk81vLX0/yjtGDAFDt6SR3ZPO6+qnMeAOQbH5q8WPZ/OgCAIxwIckvZ8LwTzbvLp7VUxf//eDIIQCo9ZuZ+A/TZy4ASfJoku9P8hOjBwGgyueS/MboIa7F7AUgSb6c5D1J3jt6EAAqfC7JpzL5a+rXUAD2kzwUJQCA7Tqf5LeyOflPHf7JOgpAogQAsF1PJ/lIks+PHmQpaykAiRIAwPLOJvn9JL+Qzdv+VmPW3wF4M3tJHkhy9+hBAJjWf2dz2v9MJvyRn6NYYwFIlAAAjud8kn/J5pW+f5PNm/2m+m3/41prAUg6S8BTSe6NH0gCOIpz2fyIz7PZvGPm3NhxWNJBCdgvWl9Mct0SmwcAM1MCAKCUEgAApZQAACilBABAKSUAAEopAQBQSgkAgFJKAACUUgIAoJQSAACllAAAKKUEAEApJQAASikBAFBKCQCAUkoAAJRSAgCglBIAAKWUAAAopQQAQCklAABKKQEAUEoJAIBSSgAAlFICAKCUEgAApZQAACilBABAKSUAAEopAQBQSgkAgFJKAACUUgIAoJQSAACllAAAKKUEAEApJQAASikBAFBKCQCAUkoAAJRSAgCglBIAAKWUAAAopQQAQCklAABKKQEAUEoJAIBSSgAAlFICAKCUEgAApZQAACilBABAKSUAAEopAQBQSgkAgFJKAACUUgIAoJQSAACllAAAKKUEAEApJQAASikBAFBKCQCAUkoAAJRSAgCglBIAAKWUAAAopQQAQCklAABKKQEAUEoJAIBSSgAAlFICAKCUEgAApZQAACilBABAKSUAAEopAQBQSgkAgFJKAACUUgIAoJQSAACllAAAKKUEAEApJQAASikBAFBKCQCAUkoAAJRSAgCglBIAAKWUAAAopQQAQCklAABKKQEAUEoJAIBSSgAAlFICAKCUEgAApZQAACilBABAKSUAAEopAQBQSgkAgFJKAACUUgIAoJQSAACllAAAKKUEAEApJQAASikBAFBKCQCAUntJHsz4YD7JdX+SUwvsHcCb2hs9ALyJ/SQPJXlPkvcOnuWk/Gg2BeCrg+cAgOHaPg64kORnF9k5AJhc28cBzyS5ZZGdA3gDPgJgFgcfB7wryY8MnuUknElyY5K/Hj0IAOyCppuAV5O8e5ltA3gtNwDMpukm4HQ2Xwt8ePQgALArWm4CXs7m4wAA4KKWbwd8dKkNA4C1aLgJ+MJiuwUAK7L2m4D/WG6rAGBd1n4TcOtyWwUA67Lmm4CfXHCfAHJ69ACwoPNJPpnkzwbPsQ3vHD0AsC4KAGtzPsnHk/zp6EEW9j2jBwDWRQFgjdZ4E+BHu4BFKQCs1dpuAl4cPQAAzGQt3w54/9IbAwBrt4ZvB7xt8V0BgAIz3wQ8v4X9AIAas94E/MU2NgMAmsx4E3DPVnYCAMrMdBNwLsnN29kGAOgzy03Ag9vaAABoNcNNwI9t7ekBoNgu3wSs6ZcMAWDn7GIJeCnJbdt8aABg9z4O+MR2HxcAOLArNwF/vO0HBQBea/RNwN8nuWHrTwkAvM5ekvtz8uH/SJIz2388AOByTiX57SQXcnLX/tefyJMBAFd0V5Jnsr3gfyn+4A8AdtItSe5L8mqWC/4L2XzP/50n+BwAwFV4d5LPJnk5Vx/8Z7P5psGdJzw7AHCNziT5aJIvJPn3XDn0n8/mlb6/kuT7BswL8DqnRg8AK3Brktuzuc4/k+S6JP+T5Lkkj2fzNwQAAAAAAAAAAAAAAAAAAAAAAAAAAAAAAAAAAAAAAAAAAAAAAAAAAAAAAAAAAAAAAAAAAAAAAAAAAAAAAAAAAAAAAAAAAAAAAAAAAAAAAAAAAAAAAAAAAAAAAAAAAAAAAAAAAAAAAAAAAAAAAAAAAAAAAAAAAAAAAAAAAAAAAAAAAAAAAAAAAAAAAAAAAAAAAAAAAAAAAAAAAAAAAAAAAAAAAAAAAAAAAAAAwC77P+Bw15A8seuVAAAAAElFTkSuQmCC;" vertex="1" parent="1">
          <mxGeometry x="1452" y="60" width="27.5" height="27.5" as="geometry" />
        </mxCell>
        <mxCell id="iHsdo4Bu1vToOxYBje5i-154" value="" style="ellipse;whiteSpace=wrap;html=1;aspect=fixed;shadow=0;glass=0;sketch=0;fillStyle=auto;strokeColor=#000000;fontSize=11;fillColor=default;gradientColor=none;gradientDirection=north;" vertex="1" parent="1">
          <mxGeometry x="1479.5" y="51" width="44" height="44" as="geometry" />
        </mxCell>
        <mxCell id="iHsdo4Bu1vToOxYBje5i-155" value="" style="shape=actor;whiteSpace=wrap;html=1;rounded=0;shadow=0;glass=0;sketch=0;fillStyle=auto;strokeColor=#000000;fontSize=11;fillColor=#000000;gradientColor=none;gradientDirection=north;" vertex="1" parent="1">
          <mxGeometry x="1486.29" y="56.5" width="30.42" height="33" as="geometry" />
        </mxCell>
        <mxCell id="iHsdo4Bu1vToOxYBje5i-156" value="&lt;font size=&quot;1&quot; style=&quot;&quot; face=&quot;Comic Sans MS&quot;&gt;&lt;b style=&quot;font-size: 16px;&quot;&gt;Person 1&lt;/b&gt;&lt;/font&gt;" style="text;html=1;strokeColor=none;fillColor=none;align=center;verticalAlign=middle;whiteSpace=wrap;rounded=0;shadow=0;glass=0;sketch=0;fillStyle=auto;fontSize=11;" vertex="1" parent="1">
          <mxGeometry x="1523.5" y="56.5" width="79" height="33" as="geometry" />
        </mxCell>
        <mxCell id="iHsdo4Bu1vToOxYBje5i-157" value="" style="line;strokeWidth=1;fillColor=none;align=left;verticalAlign=middle;spacingTop=-1;spacingLeft=3;spacingRight=3;rotatable=0;labelPosition=right;points=[];portConstraint=eastwest;strokeColor=inherit;fillStyle=auto;fontFamily=Verdana;fontSize=11;fontColor=#00994D;" vertex="1" parent="1">
          <mxGeometry x="1441" y="100" width="290" height="8" as="geometry" />
        </mxCell>
        <mxCell id="iHsdo4Bu1vToOxYBje5i-158" value="" style="html=1;verticalLabelPosition=bottom;align=center;labelBackgroundColor=#ffffff;verticalAlign=top;strokeWidth=2;strokeColor=#000000;shadow=0;dashed=0;shape=mxgraph.ios7.icons.video_conversation;sketch=0;fillStyle=auto;fontFamily=Helvetica;fontSize=11;fontColor=#000000;fillColor=#FFFFFF;" vertex="1" parent="1">
          <mxGeometry x="1613.5" y="64" width="30" height="15" as="geometry" />
        </mxCell>
        <mxCell id="iHsdo4Bu1vToOxYBje5i-159" style="edgeStyle=orthogonalEdgeStyle;rounded=0;orthogonalLoop=1;jettySize=auto;html=1;exitX=0.5;exitY=1;exitDx=0;exitDy=0;fontFamily=Helvetica;fontSize=11;fontColor=#000000;" edge="1" parent="1" source="iHsdo4Bu1vToOxYBje5i-156" target="iHsdo4Bu1vToOxYBje5i-156">
          <mxGeometry relative="1" as="geometry" />
        </mxCell>
        <mxCell id="iHsdo4Bu1vToOxYBje5i-160" value="" style="shape=image;html=1;verticalAlign=top;verticalLabelPosition=bottom;labelBackgroundColor=#ffffff;imageAspect=0;aspect=fixed;image=https://cdn0.iconfinder.com/data/icons/evericons-24px-vol-1/24/call-phone-128.png;sketch=0;fillStyle=auto;strokeColor=#000000;strokeWidth=4;fontFamily=Helvetica;fontSize=11;fontColor=#000000;fillColor=#FFFFFF;" vertex="1" parent="1">
          <mxGeometry x="1657" y="59.129999999999995" width="27.75" height="27.75" as="geometry" />
        </mxCell>
        <mxCell id="iHsdo4Bu1vToOxYBje5i-161" value="" style="shape=image;verticalLabelPosition=bottom;labelBackgroundColor=default;verticalAlign=top;aspect=fixed;imageAspect=0;image=data:image/png,iVBORw0KGgoAAAANSUhEUgAAAgAAAAIACAQAAABecRxxAAAReElEQVR42u3d72vV5R/H8dd+KNmmm78CSUOJthHdMS1SiWiNTM0UI5oUFpr9HUEERhQNuhV0IynKe4E3W0mFggvRWqLb17xjYf7C/dSZ2znfG3Fgyrbza+e8rutcz8f77m68ruvwfp/rfPY5nyMBAAAAAAAAAAAAAAAAAAAAAAAAAAAAAAAAAAAAAAAAAAAAAAAAAAAAAAAAAAAAAAAAAAAAAAAAAAAAAAAAAAAAAAAAAAAAABCfOncAVFGL2tSuDrVpjZrUpKVqkjSumxrXuC5pUOc1oEENu4OiWhgAKWjWM+pSl9arvqC/v6he9apXN93BAZSjVe/qZ00qW0JN6icdVKt7CQCKV68dOqLbJbX+9LqtI9pe4MkBQADqtVOnym796fWH9qnRvSwA+TTqHV2Y1+bP1f90gCEAhGyjfq1I8+fqjLa4lwhgJsvUo6mKtn9WWWV0WA+5lwrgXrt1o+LNn6vr2uVeLoCcRh1Spmrt/985oEcL3csGIK1TX1WbP1cntda9dCB1G3XV0v5ZZXVDm9zLB1LWqRFb+2eV1Zhecm8BkKo9mrC2f1ZZ3dFe9zYAKdpbhX/6FVJT6nZvBZCaFwJ498/Vv9rq3g4gJU9p1N7202ucy4FAtazTNXvL319X+acgUA0LdMLe7jNVH7cGAZX3qb3VZ6uP3VsD1LqXq3zTbzGV0W739gC1bGUVv/JTSl3XCvcWoRgN7gAoymfa7I4wpwe1TEfdIYDatCXg43+upviHIFAJjTpjb+9C6nceHAbMv4P21i609ru3CoXih0Fi0aBzeswdokB/qkOT7hAoBM97j0V3NO0vParX3BGAWlKnfvvBvpg6y1tLHHiZ4rBdT7gjFOVxvh8YBwZAHN5yByjaPncAFIKLgDFo0WUtcoco0oRWacgdAvlwAohBd3TtLz2gV90RkB8DIAZvuAOU5E13AOTHR4DwtehGlN/ZmNRyjbhDYG6cAML3XJTtLzXqWXcE5MMACN/z7gAJJk8GAyB8ne4ACSZPBtcAQteim9G+Shm1atQdAnPhBBC69mjbX6pXmzsC5sYACF27O0DC6RPAAAhd3C0Ud/oEMABCF3cLxZ0+AQyA0D3sDlCW1e4AmBsDIHRL3AHKstgdAHNjAISu2R2gLAyAwDEAQhd3C8WdPgEMgNBxAkAFMQCAhDEAQjfmDlAWbgQOHAMgdHG3UNzpE8AACB0nAFQQAyB0cT9ThwEQOAZA6P52ByjLX+4AmBsDIHQD7gAJp08AAyB0cbdQ3OkTwAAIXdwtFHf6BMT7tJlULNFQtK8SjwQLHieA0I2o3x2hZL/R/qFjAITvR3eAkv3gDoB8GADhO+YOkGDyZMT66TIl/DQYKoYTQPiGddwdoSS/0P7hYwDE4Gt3gJJ85Q6A/PgIEIMWXdYid4giTWiVhtwhkA8ngBgM66g7QtG+o/1jwACIw5fuAEU77A4A1I469SsbUZ3lrSUOvExxyOqQO0JR3lfGHQGF4CJgLBp0To+5QxTogjo05Q6BQnACiMWUPnRHKNgHtD8w3xp02v7ZvpA6FeV9i0DwntaUvb3z1ZQ2ubcJqFVf2Bs8X33u3iKgdq3QdXuLz1XXtNy9RUAt26GMvc1nq4x2ubcHqHWf2Bt9tvrIvTVA7VugE/ZWn6lOaqF7a4AUrNVVe7vfX1f0iHtbgFRs1Ii95afXiJ50bwmQkk5N2Ns+V3f0ons7gNR0B3Jb0JRed28FkKI9um1v/zvqdm8DkKpODVvbf1Rb3VsApGyDrtja/x9tcC8fSN0aHbe0f5/WuZcOQGrUe1W+IJhRD7f9AOF4pYpfE7qmne7lArjXUvVU4RyQ0WGtdC8VwEw2qK+i7X9am91LBDC7Bu3XYEWaf0Bv87AvIHz12qlT89r8/dqnRveyABSqTtv0rW6V3fq39I228fh4IEYtOqBjultS69/VMe1Xi3sJqCQmewqatEld6tL6An8H4qJ61avv+XnP2scASMlitatNHWrXajWrWa1qljSmIY1pTJc0qPMa0KBG3UEBAAAAAAAAAAAAAAAAAAAAAAAAAAAAAAAAAAAAAAAAAAAAAAAAAAAAAAAAAAAAAAAAAAAAAAAAAAAAAAAAAAAAAAAAAAAAAAAAAAAAAAAAAAAAAAAAAAAAAAAAAAAAAEBM6twBUEUtalO7OtSmNWpSk5aqSdK4bmpc47qkQZ3XgAY17A6KamEApKBZz6hLXVqv+oL+/qJ61ate3XQHB1COVr2rnzWpbAk1qZ90UK3uJQAoXr126Ihul9T60+u2jmh7gScHAAGo106dKrv1p9cf2qdG97IA5NOod3RhXps/V//TAYYAELKN+rUizZ+rM9riXiKAmSxTj6Yq2v5ZZZXRYT3kXiqAe+3WjYo3f66ua5d7uQByGnVImaq1/3/ngB4tdC8bgLROfVVt/lyd1Fr30oHUbdRVS/tnldUNbXIvH0hZp0Zs7Z9VVmN6yb0FQKr2aMLa/llldUd73dsApGhvFf7pV0hNqdu9FUBqXgjg3T9X/2qrezuAlDylUXvbT69xLgcC1bJO1+wtf39d5Z+CQDUs0Al7u89UfdwaBFTep/ZWn60+dm8NUOtervJNv8VURrvd2wPUspVV/MpPKXVdK9xbhGI0uAOgKJ9pszvCnB7UMh11hwBq05aAj/+5muIfgkAlNOqMvb0Lqd95cBgw/w7aW7vQ2u/eKhSKHwaJRYPO6TF3iAL9qQ5NukOgEDzvPRbd0bS/9Khec0cAakmd+u0H+2LqLG8tceBlisN2PeGOUJTH+X5gHBgAcXjLHaBo+9wBUAguAsagRZe1yB2iSBNapSF3COTDCSAG3dG1v/SAXnVHQH4MgBi84Q5QkjfdAZAfHwHC16IbUX5nY1LLNeIOgblxAgjfc1G2v9SoZ90RkA8DIHzPuwMkmDwZDIDwdboDJJg8GVwDCF2Lbkb7KmXUqlF3CMyFE0Do2qNtf6lebe4ImBsDIHTt7gAJp08AAyB0cbdQ3OkTwAAIXdwtFHf6BDAAQvewO0BZVrsDYG4MgNAtcQcoy2J3AMyNARC6ZneAsjAAAscACF3cLRR3+gQwAELHCQAVxAAAEsYACN2YO0BZuBE4cAyA0MXdQnGnTwADIHScAFBBDIDQxf1MHQZA4BgAofvbHaAsf7kDYG4MgNANuAMknD4BDIDQxd1CcadPAAMgdHG3UNzpExDv02ZSsURD0b5KPBIseJwAQjeifneEkv1G+4eOARC+H90BSvaDOwDyYQCE75g7QILJkxHrp8uU8NNgqBhOAOEb1nF3hJL8QvuHjwEQg6/dAUrylTsA8uMjQAxadFmL3CGKNKFVGnKHQD6cAGIwrKPuCEX7jvaPAQMgDl+6AxTtsDsAUDvq1K9sRHWWt5Y48DLFIatD7ghFeV8ZdwQUgouAsWjQOT3mDlGgC+rQlDsECsEJIBZT+tAdoWAf0P7AfGvQaftn+0LqVJT3LQLBe1pT9vbOV1Pa5N4moFZ9YW/wfPW5e4uA2rVC1+0tPldd03L3FgG1bIcy9jafrTLa5d4eoNZ9Ym/02eoj99YAtW+BTthbfaY6qYXurQFSsFZX7e1+f13RI+5tAVKxUSP2lp9eI3rSvSVASjo1YW/7XN3Ri+7tAFLTHchtQVN63b0VQIr26La9/e+o270NQKo6NWxt/1FtdW8BkLINumJr/3+0wb18IHVrdNzS/n1a5146AKlR71X5gmBGPdz2A4TjlSp+TeiadrqXC+BeS9VThXNARoe10r1UADPZoL6Ktv9pbXYvEcDsGrRfgxVp/gG9zcO+gPDVa6dOzWvz92ufGt3LAlCoOm3Tt7pVduvf0jfaxuPjgRi16ICO6W5JrX9Xx7RfLe4loJKY7Clo0iZ1qUvrC/wdiIvqVa++5+c9ax8DICWL1a42dahdq9WsZrWqWdKYhjSmMV3SoM5rQIMadQcFAAAAAAAAAAAAAAAAAAAAAAAAAAAAAAAAAAAAAAAAAAAAAAAAAAAAAAAAAAAAAAAAAAAAAAAAAAAAAAAAAAAAAAAAAAAAAAAAAAAAAAAAAAAAAAAAAAAAAAAAAAAAAAAxqXMHQBW1qE3t6lCb1qhJTVqqJknjuqlxjeuSBnVeAxrUsDsoqoUBkIJmPaMudWm96gv6+4vqVa96ddMdHEA5WvWuftaksiXUpH7SQbW6lwCgePXaoSO6XVLrT6/bOqLtBZ4cAASgXjt1quzWn15/aJ8a3csCkE+j3tGFeW3+XP1PBxgCQMg26teKNH+uzmiLe4kAZrJMPZqqaPtnlVVGh/WQe6kA7rVbNyre/Lm6rl3u5QLIadQhZarW/v+dA3q00L1sANI69VW1+XN1UmvdSwdSt1FXLe2fVVY3tMm9fCBlnRqxtX9WWY3pJfcWAKnaowlr+2eV1R3tdW8DkKK9VfinXyE1pW73VgCpeSGAd/9c/aut7u0AUvKURu1tP73GuRwIVMs6XbO3/P11lX8KAtWwQCfs7T5T9XFrEFB5n9pbfbb62L01QK17uco3/RZTGe12bw9Qy1ZW8Ss/pdR1rXBvEYrR4A6Aonymze4Ic3pQy3TUHQKoTVsCPv7naop/CAKV0Kgz9vYupH7nwWHA/Dtob+1Ca797q1AofhgkFg06p8fcIQr0pzo06Q6BQvC891h0R9P+0qN6zR0BqCV16rcf7Iups7y1xIGXKQ7b9YQ7QlEe5/uBcWAAxOEtd4Ci7XMHQCG4CBiDFl3WIneIIk1olYbcIZAPJ4AYdEfX/tIDetUdAfkxAGLwhjtASd50B0B+fAQIX4tuRPmdjUkt14g7BObGCSB8z0XZ/lKjnnVHQD4MgPA97w6QYPJkMADC1+kOkGDyZHANIHQtuhntq5RRq0bdITAXTgCha4+2/aV6tbkjYG4MgNC1uwMknD4BDIDQxd1CcadPAAMgdHG3UNzpE8AACN3D7gBlWe0OgLkxAEK3xB2gLIvdATA3BkDomt0BysIACBwDIHRxt1Dc6RPAAAgdJwBUEAMASBgDIHRj7gBl4UbgwDEAQhd3C8WdPgEMgNBxAkAFMQBCF/czdRgAgWMAhO5vd4Cy/OUOgLkxAEI34A6QcPoEMABCF3cLxZ0+AQyA0MXdQnGnT0C8T5tJxRINRfsq8Uiw4HECCN2I+t0RSvYb7R86BkD4fnQHKNkP7gDIhwEQvmPuAAkmT0asny5Twk+DoWI4AYRvWMfdEUryC+0fPgZADL52ByjJV+4AyI+PADFo0WUtcoco0oRWacgdAvlwAojBsI66IxTtO9o/BgyAOHzpDlC0w+4AQO2oU7+yEdVZ3lriwMsUh6wOuSMU5X1l3BFQCC4CxqJB5/SYO0SBLqhDU+4QKAQngFhM6UN3hIJ9QPsD861Bp+2f7QupU1HetwgE72lN2ds7X01pk3ubgFr1hb3B89Xn7i0CatcKXbe3+Fx1TcvdWwTUsh3K2Nt8tspol3t7gFr3ib3RZ6uP3FsD1L4FOmFv9ZnqpBa6twZIwVpdtbf7/XVFj7i3BUjFRo3YW356jehJ95YAKenUhL3tc3VHL7q3A0hNdyC3BU3pdfdWACnao9v29r+jbvc2AKnq1LC1/Ue11b0FQMo26Iqt/f/RBvfygdSt0XFL+/dpnXvpAKRGvVflC4IZ9XDbDxCOV6r4NaFr2uleLoB7LVVPFc4BGR3WSvdSAcxkg/oq2v6ntdm9RACza9B+DVak+Qf0Ng/7AsJXr506Na/N3699anQvC0Ch6rRN3+pW2a1/S99oG4+PB2LUogM6prsltf5dHdN+tbiXgEpisqegSZvUpS6tL/B3IC6qV736np/3rH0MgJQsVrva1KF2rVazmtWqZkljGtKYxnRJgzqvAQ1q1B0UAAAAAAAAAAAAAAAAAAAAAAAAAAAAAAAAAAAAAAAAAAAAAAAAAAAAAAAAAAAAAAAAAAAAAAAAAAAAAAAAAAAAAAAAAAAAAABgdv8H4yRVtg+gjgwAAAAASUVORK5CYII=;" vertex="1" parent="1">
          <mxGeometry x="1691" y="59.5" width="25.5" height="25.5" as="geometry" />
        </mxCell>
        <mxCell id="iHsdo4Bu1vToOxYBje5i-162" value="" style="rounded=1;whiteSpace=wrap;html=1;labelBackgroundColor=none;sketch=0;fillStyle=auto;strokeColor=#000000;strokeWidth=2;fontFamily=Helvetica;fontSize=11;fontColor=#000000;fillColor=#FFFFFF;" vertex="1" parent="1">
          <mxGeometry x="1447.12" y="443.5" width="231.75" height="29.5" as="geometry" />
        </mxCell>
        <mxCell id="iHsdo4Bu1vToOxYBje5i-163" value="" style="shape=ellipse;html=1;dashed=0;whitespace=wrap;perimeter=ellipsePerimeter;labelBackgroundColor=none;sketch=0;fillStyle=auto;strokeColor=#000000;strokeWidth=2;fontFamily=Helvetica;fontSize=11;fontColor=#000000;fillColor=#FFFFFF;" vertex="1" parent="1">
          <mxGeometry x="1684.75" y="436" width="44" height="44" as="geometry" />
        </mxCell>
        <mxCell id="iHsdo4Bu1vToOxYBje5i-164" value="" style="html=1;verticalLabelPosition=bottom;align=center;labelBackgroundColor=#ffffff;verticalAlign=top;strokeWidth=2;strokeColor=#000000;shadow=0;dashed=0;shape=mxgraph.ios7.icons.microphone;sketch=0;fillStyle=auto;fontFamily=Helvetica;fontSize=11;fontColor=#000000;fillColor=#FFFFFF;" vertex="1" parent="1">
          <mxGeometry x="1700.75" y="439.75" width="12" height="33" as="geometry" />
        </mxCell>
        <mxCell id="iHsdo4Bu1vToOxYBje5i-165" value="&lt;font style=&quot;font-size: 12px;&quot;&gt;Ketik Pesan&lt;/font&gt;" style="text;html=1;strokeColor=none;fillColor=none;align=center;verticalAlign=middle;whiteSpace=wrap;rounded=0;labelBackgroundColor=none;sketch=0;fillStyle=auto;strokeWidth=2;fontFamily=Helvetica;fontSize=11;fontColor=#000000;" vertex="1" parent="1">
          <mxGeometry x="1447.12" y="443" width="87.5" height="30" as="geometry" />
        </mxCell>
        <mxCell id="iHsdo4Bu1vToOxYBje5i-166" value="" style="sketch=0;outlineConnect=0;fontColor=#232F3E;gradientColor=none;fillColor=#000000;strokeColor=none;dashed=0;verticalLabelPosition=bottom;verticalAlign=top;align=center;html=1;fontSize=12;fontStyle=0;aspect=fixed;pointerEvents=1;shape=mxgraph.aws4.camera2;shadow=0;" vertex="1" parent="1">
          <mxGeometry x="994.5" y="448.38" width="19.81" height="15.75" as="geometry" />
        </mxCell>
        <mxCell id="iHsdo4Bu1vToOxYBje5i-167" value="" style="shape=image;verticalLabelPosition=bottom;labelBackgroundColor=default;verticalAlign=top;aspect=fixed;imageAspect=0;image=data:image/png,iVBORw0KGgoAAAANSUhEUgAAAgAAAAIACAMAAADDpiTIAAAAA3NCSVQICAjb4U/gAAAACXBIWXMAARCQAAEQkAGJrNK4AAAAGXRFWHRTb2Z0d2FyZQB3d3cuaW5rc2NhcGUub3Jnm+48GgAAAo5QTFRF////AwEEAwEEAwEEAwEEAwEEAwEEAwEEAwEEAwEEAwEEAwEEAwEEAwEEAwEEAwEEAwEEAwEEAwEEAwEEAwEEAwEEAwEEAwEEAwEEAwEEAwEEAwEEAwEEAwEEAwEEAwEEAwEEAwEEAwEEAwEEAwEEAwEEAwEEAwEEAwEEAwEEAwEEAwEEAwEEAwEEAwEEAwEEAwEEAwEEAwEEAwEEAwEEAwEEAwEEAwEEAwEEAwEEAwEEAwEEAwEEAwEEAwEEAwEEAwEEAwEEAwEEAwEEAwEEAwEEAwEEAwEEAwEEAwEEAwEEAwEEAwEEAwEEAwEEAwEEAwEEAwEEAwEEAwEEAwEEAwEEAwEEAwEEAwEEAwEEAwEEAwEEAwEEAwEEAwEEAwEEAwEEAwEEAwEEAwEEAwEEAwEEAwEEAwEEAwEEAwEEAwEEAwEEAwEEAwEEAwEEAwEEAwEEAwEEAwEEAwEEAwEEAwEEAwEEAwEEAwEEAwEEAwEEAwEEAwEEAwEEAwEEAwEEAwEEAwEEAwEEAwEEAwEEAwEEAwEEAwEEAwEEAwEEAwEEAwEEAwEEAwEEAwEEAwEEAwEEAwEEAwEEAwEEAwEEAwEEAwEEAwEEAwEEAwEEAwEEAwEEAwEEAwEEAwEEAwEEAwEEAwEEAwEEAwEEAwEEAwEEAwEEAwEEAwEEAwEEAwEEAwEEAwEEAwEEAwEEAwEEAwEEAwEEAwEEAwEEAwEEAwEEAwEEAwEEAwEEAwEEAwEEAwEEAwEEAwEEAwEEAwEEAwEEAwEEAwEEAwEEAwEEAwEEAwEEAwEEAwEEAwEEAwEEAwEEAwEEAwEEAwEEAwEEAwEEAwEEAwEEAwEEAwEEAwEEAwEEAwEEAwEEAwEEAP9WIwAAANl0Uk5TAAECAwQFBgcICQoLDA4PEBESExQVFxgZHR4fICEiJCUnKCkrLC4yMzQ1Njc4OTo9PkBBQkNERUZHSElKS0xNTk9QUVJTVFdYWltcXV5fYGFiY2VmZ2lqa2xtbm9wcXJzdHV3eHl7fH1+f4CBgoWGh4iJi4yNjo+QkZOVlpiZmpucnZ+goaKkpaanqKmqq6ytr7CxsrO0tba4ubq7vL2+v8DBwsPFxsfIycrLzM3Oz9HS09TV1tjZ293e3+Dh4uPk5ebn6Onq6+zt7u/w8fP09fb3+Pn6+/z9/maGLyAAAA8nSURBVHja7d0LexXVFcbxSUICRpIASoEQJKBUAigoeEOgqMUWScUrFEFAkFQQ6gVBrCItghVvgKB4g1jkoiJCCQkFFNuASFEJuZBkvk371PbpoxLYc9h71tpn/98PkLNm1i9wMu+cOVHkMDm9R92/dH31rrr6UzH5SVpOHNq77e1V8yYMuijKvhSNW7q7gSWbpf3z16eUZ9P2r1q0s5W1JsyXqyuLsmL7pVUH2GZmOb1mdJ7n2y+orG5nkReQ+sX9PV5/4fQjrPBC07ZmkKfrL6k6zvqsvCfcMMzD9edN/5bVWcvGMt/2P3Q3W7P6frCqwKf1d3uOt362U3edP/sfVc++HOR5T64Q5j3axrKcZO8AH/bfq5pNucqpSfr3P+IYe3KYFZ2U7//WRpbkNJsKVe//Hkof19nRXfH+57Ef99nfW+3+n2A7aeSLUqX7n81u0kntJSr3X8nVv7Ty0cUK9z/mDItJLe/kq9v/YO74SzOr1ZX/B1lKqrlPGYC1rCTdNOq6T2gaG0n9T4GuivZ/ZTMLST0v6tl//n7WIZAJagDMZRkSOaLlP4E+/AUok8VKAKxjFTI5c4WOS4BsQipbNew/Zx+LEMtYDfcAsQa57FAA4FPWIJiR4vu/mSVI5n1xANtZgmiGCu+/ghXI5iVhAM+wAtmcln2OTD6PAJDO3aIAxiUfuO2T15bNmXwn+XGmLlr57le+XQx6NeG0jW/cdWlEOkzu8CUHE57S9n6C83ZtSnbtenkvdnzeK6t3HE4moMqbiwAby1mvSTo/mOjpOh8Ijro4yT9VD7Na0wxM8mjFpi5ygyZ4ENB349mrebq958Xl4O7mjwJpHMZWkyTvTXMAC8WmvM18yInsNFmKaozP7YdiQz5pPONjbDRp+n1t/CZA7IHCG0xH3JPLQhNnovGv12VSI9aaTngT68zggoDxW+wxQhN2ajEccDPbzCTXmwKYJTRgf9MBh7PMjLLN8PyuEJrP9Hbg+hx2mVFmKO+D7jWcbzmrzCxlhif4oNB8swznG80qM8wesxN8XGi8BYYAithkhnnW8EKA0HhLDFsAFplpTJ+7KPRdAivMpqtjkZlmsiGAHjLjvWw23RYWmWluMATQV2Y8w08Fr2eRmWaYIYBymfHWA0AJgAEAAAAAAAAAAAAAAAAAAAAAAAAAAAAAAAAAAAAAAAAAAAAAAAAAAAAAAAAAAAAAAAAAAAAAAAAAAAAAAAAAAAAAAAAAAAAAAAAAAAAAAAAAAAAAAAAAAAAAAAAAAAAAAAAAAAAAAAAAAAAAAAAAAAAAAAAAAAAAAAAAAAAAAAAAAAAAAAAAAAAAAAAAAAAAAAAAAAEAAQABAAEAAQABAAEAAQABAAEAAQABAAGAt+n52z9sPvL3mu1/rCy1+4O7rAWA/vRaevr/B7ss1+rPzn0KANrzu8YfHm2h3R8/tRUAqjPzx4f7cU+7LzD2FAAU51ftPzneQwPtvsTP/wEAtRnZfJYDPnmt3Rfp81cAKE3+4bMecUul3Zcpfg8AOnN3R8c83zK0PwFAZeo6POhV+XZfqQoACjPoHEe9pcTua01sBoC+SwDnOuyavnZfbMQ/AaAtO8953Ecr7L5a+d8AoCwnzn3gDePtvtylOwGgKp3Pd+RtD9h9wYvWAkBT+p7/2J9OpxsCgEiuNjn4VLohAIjklyZHn0o3BACRTDM6/DS6IQCI5DGz40+hGwKASF4wvGPPfTcEAJGsi03juhsCgObjT6EbAoB2AI67IQCoB+C2GwKAfgBOuyEAeADAZTcEAB8AOOyGAOAFAHfdEAA8AeCqGwKALwAcdUMA8AaAm24IAP4AcNINAcAjAC66IQD4BMBBNwQAvwBY74Y6AcAvANa7IQB4BsB6NwQAzwDERwcDIGgA1rshAHgGwHo3BADPAFjvhgDgGwDr3RAAPANgvRsCgGcArHdDAPAMgPVuCACeAbDeDQHAMwDWuyEA+AbAejcEAM8A+NoNAcBaakoBEDQAP7shAFiMj90QAGzGw24IAHbjXTcEAMvxrRsCgO141g0BwHr86oYAYD9edUMAcJDmSgAEDcCnbggAbuJNNwQAR9lcAoCgAfjSDQHAWfzohgDgLg2/AEDQALzohgDgNPq7IQC4jfpuCACOo70bUgMgr7hEIm+5BqC9G9IAYMDcTZ/Vt8XZGt3dkDiA4gW1cZaneRIAOkrnmSfiADIfAGfPkENxGHkhHwBnyaTGOJSo7YYkATweBxSt3ZAggJlxUFHaDckBuLE1LABKuyExAGUn49CishsSA/BKHGAUdkNSACraQwSgsBuSArAlDjPquiEhAAPjUKOtGxICMCdYANq6ISEA28IFoKwbkgHQoy0OOfODBzAkDjuKuiEZALcEDkBRNyQDYEroAPR0QzIAFgYPQE03JAPgcQBo6YYAEHg3BIDAuyEASGZdIQDCjnw3BIDAuyEABN4NASDwbggAgXdDAAi8GwJA4N0QAALvhgCgI/WDAUA3BAC6IQDQDQGAbggAdEMAoBsCQIjd0DUAoBsCAN0QAOiGAEA3BAC6IQAEmfS6IQDoTGrdEACUpm0aAAJPOt0QAPQmlW4IAIqTRjcEAM1JoRsCgOq474YAoDvOuyEAaM8jAAg8brshAOiP024IAB7EZTcEAB/isBsCAAAAwH8BAOBNIAD4MxAAXAgCAJeCAaAolEFhhzo47HBDSNjhlrCww02hQYfbwsMOHwwJO3w0LOzw4dCww8fDww4PiAg7PCIm6PCQqLDDY+LCDg+KDDs8Kjbs8LDosMPj4oMOXxgRdvjKGNofAND+AID2BwC0PwCg/QEA7Q8Awmh/ro0AQPsDANofAND+AID2BwC0PwCg/cl6AAvZ/9HBUcAAptD+lEYhA7iF9icKGsAQ2p+wAfRoo/0JGkC0jfYnbABzaH/CBjCQ9idsANEW2p+wAVS0B7n/9YURAL7PK7Q/YQMoO0n7EzSA6MZW2p+gAUQzaX/CBhBWKaym/VEEIJrUSPsTNIBoyCHan6ABRJ1nnqD9CRlAFBUvqKX9CRnAvzNg7qbP6rO3IFbW/igE8J/kFZdI5K3g2h+tAHQffxa1PwBIFYC+9gcAaQJQ2P4AID0AKtsfAKQGQGf7A4C0AChtfwCQEgCt7Q8A0gGgtv0BQCoAVuVHAAgYwPxsOwEASNT+VEYACBiA7vYHAK4BKG9/AOAYgPb2BwBuAahvfwDgFID+9gcADgH40P4AwB2AhvERAAIG4Ef7AwBXADxpfwDgCMCWkggAAQPwpv0BgBMA87P8BADgnGmpjAAQMACv2h8AWAfgV/sDANsAPGt/AGAZgG/tDwDsAvCu/QGATQAetj8AsAjAx/YHAPYAeNn+AMAagJq+EQACBuBp+wMASwAstz85BQDwCoDl9qfgzwMA4BEA2+1Pt7/EAPAIgO32p19tDACPANhuf4YeiwHgEQDb7c9tp2MAeATAdvvz4PcPSQWAJwAstz95z/z35wLACwC225+LN8QA8AiA7fbnZ7tiAHgE4GiF3Ve//HAMAI8A2G5/Rn4TA8AjALbbn9+0xADwCIDtz/48+sMfDwCRmH+Dre32Z3UMAAV5Wqj9KamOAaAhD8m0P333xwBQkV+LtD8VR2MA6Mg1Eu3P+IYYAErSX6D9eeCsX5EHAJEUpt7+5HbwvhMAMvkm5fansKMzDgCZ7Ey3/en5cQwAVbk/1fZnYMdflw4AmRQ3pNj+XHMyBoC2rEyv/ZnUHANAXa5Orf155JynGABSqUmn/clfGQNAZYY3pdH+FL8fA0Bpbm933/702RcDQG1mO29/rqyPAaA4v2912/6MPRUDQHUu3+Sy/ZnaGgNAe0a9cex/B7vMcvvzlNEpBoB4ym6fOuOhyVf3sPtTu6yNARByhsUAAAAAAAAAAAAAAAAAAAAAAAAAAAAAAAAAAAAAAAAAAAAAAAAAAAAAAAAAAAAAAAAAAAAAAAAAAAAAAAAAAAAAAAAAAAAAAAAAAAAAAAAAAAAAAAAAAAAAAAAAAAAAAAAAAAAAAAAAAAAAAAAAAAAAAAAAAAAAAAAAAAAAAAAAAAAAAAAAAAAAAAAAAAAAAAAAAAAAAAAAAAAAAAAAAAAAAAAAAAAAAAAAAAAAAAAAAAAAAACyFsA6ACgBUC4z3stm021hkZnmBkMAfWXGW2E2XR2LzDSTDQH0kBlvidl037HITDPPEECBzHgLDMcrYpMZ5lmzE9wkNN4sQwCj2WSG2WN2go8LjXevIYDlbDKzlBme4INC840xnK8+h11mlBmGJ3ir0Hz9DeeLh7PLjLLN8PyuEJqvU4vhgJvZZSa53vQXbJbUhLWmE97ENpMnZ7fp6R0jNeIG0wn35LLPxJloenbjy6RGfNJ4xMfYZ9L0+9r05DblSc14mzGAeCIbTZaiGuNz+6HYkN3bjIdsHMZOkyTvTfNfroVyY+42n/K78WzVPN3eMz+z8Ui5ORcnGLP9YfZqmoEHEpzYpi5yg94cJ8nGclZrks4PfpvktH4gOGrXpkQCzizvxXrP++f/HYcTndS4SnLaV5PNGje+cdel7Ljj5A5fcjDhKW3vJznwuDhx2j55bdmcyXeSH2fqopXvfpX8fG4VFZt/PCayuVv236xn2IBsTgvfb1XBCmTzkvTblu3sQDRDpQHczA4k8778Xy6fsgXBjJQHcCtbkMsODVeu9rEHsYzVcPVqDHuQytZIRdaxCZmcuUIHgD4N7EIki7VUGHPZhUSOdNUCIH8/2xDIBD0t5pXNrCP1vKipx57GPtJObVdNAKK1bCTdNA7SdStLyUF2kmru03Yz02D+Fkwzq/XdzjbmDGtJLe/kK7yhsbKdxaSUjy5WeUvrbDaT0h8Alyi9qfkJdpNGvihVe1v7PLbjPvt7K/5gwz2tLMhxdnRX/dGWWxtZkdNsKlT+4aYRx1iSw6zopP7jbb2qWZOrnJrkwwcc8x5tY1VOsndA5EdG1bMsB3n+osiXdHuOq4K2U3dd5FOG7mZlNnO6qiDyK3nTv2Vt1rKxLPIvJVU8PMBK2jf4+oy9wulHWN+Fpm3NoMjfFFRW83bwQlK/uH/keUqrDrDHDN/5rRmdF2VDrlq0k5Ioab5cXZlN37ZVNG7pbu4aNH3X9/nrU8qj7EtO71H3L11fvauu/hRL/mlaThzau+3tVfMmDBK84vcvieDydOLVVcEAAAAASUVORK5CYII=;" vertex="1" parent="1">
          <mxGeometry x="964.5" y="448.38" width="20" height="20" as="geometry" />
        </mxCell>
        <mxCell id="iHsdo4Bu1vToOxYBje5i-175" value="" style="sketch=0;outlineConnect=0;fontColor=#232F3E;gradientColor=none;fillColor=#000000;strokeColor=none;dashed=0;verticalLabelPosition=bottom;verticalAlign=top;align=center;html=1;fontSize=12;fontStyle=0;aspect=fixed;pointerEvents=1;shape=mxgraph.aws4.camera2;shadow=0;" vertex="1" parent="1">
          <mxGeometry x="1324.5" y="322.66999999999996" width="19.81" height="15.75" as="geometry" />
        </mxCell>
        <mxCell id="iHsdo4Bu1vToOxYBje5i-176" value="" style="shape=image;verticalLabelPosition=bottom;labelBackgroundColor=default;verticalAlign=top;aspect=fixed;imageAspect=0;image=data:image/png,iVBORw0KGgoAAAANSUhEUgAAAgAAAAIACAMAAADDpiTIAAAAA3NCSVQICAjb4U/gAAAACXBIWXMAARCQAAEQkAGJrNK4AAAAGXRFWHRTb2Z0d2FyZQB3d3cuaW5rc2NhcGUub3Jnm+48GgAAAo5QTFRF////AwEEAwEEAwEEAwEEAwEEAwEEAwEEAwEEAwEEAwEEAwEEAwEEAwEEAwEEAwEEAwEEAwEEAwEEAwEEAwEEAwEEAwEEAwEEAwEEAwEEAwEEAwEEAwEEAwEEAwEEAwEEAwEEAwEEAwEEAwEEAwEEAwEEAwEEAwEEAwEEAwEEAwEEAwEEAwEEAwEEAwEEAwEEAwEEAwEEAwEEAwEEAwEEAwEEAwEEAwEEAwEEAwEEAwEEAwEEAwEEAwEEAwEEAwEEAwEEAwEEAwEEAwEEAwEEAwEEAwEEAwEEAwEEAwEEAwEEAwEEAwEEAwEEAwEEAwEEAwEEAwEEAwEEAwEEAwEEAwEEAwEEAwEEAwEEAwEEAwEEAwEEAwEEAwEEAwEEAwEEAwEEAwEEAwEEAwEEAwEEAwEEAwEEAwEEAwEEAwEEAwEEAwEEAwEEAwEEAwEEAwEEAwEEAwEEAwEEAwEEAwEEAwEEAwEEAwEEAwEEAwEEAwEEAwEEAwEEAwEEAwEEAwEEAwEEAwEEAwEEAwEEAwEEAwEEAwEEAwEEAwEEAwEEAwEEAwEEAwEEAwEEAwEEAwEEAwEEAwEEAwEEAwEEAwEEAwEEAwEEAwEEAwEEAwEEAwEEAwEEAwEEAwEEAwEEAwEEAwEEAwEEAwEEAwEEAwEEAwEEAwEEAwEEAwEEAwEEAwEEAwEEAwEEAwEEAwEEAwEEAwEEAwEEAwEEAwEEAwEEAwEEAwEEAwEEAwEEAwEEAwEEAwEEAwEEAwEEAwEEAwEEAwEEAwEEAwEEAwEEAwEEAwEEAwEEAwEEAwEEAwEEAwEEAwEEAwEEAwEEAwEEAwEEAwEEAwEEAwEEAwEEAwEEAwEEAwEEAwEEAwEEAwEEAP9WIwAAANl0Uk5TAAECAwQFBgcICQoLDA4PEBESExQVFxgZHR4fICEiJCUnKCkrLC4yMzQ1Njc4OTo9PkBBQkNERUZHSElKS0xNTk9QUVJTVFdYWltcXV5fYGFiY2VmZ2lqa2xtbm9wcXJzdHV3eHl7fH1+f4CBgoWGh4iJi4yNjo+QkZOVlpiZmpucnZ+goaKkpaanqKmqq6ytr7CxsrO0tba4ubq7vL2+v8DBwsPFxsfIycrLzM3Oz9HS09TV1tjZ293e3+Dh4uPk5ebn6Onq6+zt7u/w8fP09fb3+Pn6+/z9/maGLyAAAA8nSURBVHja7d0LexXVFcbxSUICRpIASoEQJKBUAigoeEOgqMUWScUrFEFAkFQQ6gVBrCItghVvgKB4g1jkoiJCCQkFFNuASFEJuZBkvk371PbpoxLYc9h71tpn/98PkLNm1i9wMu+cOVHkMDm9R92/dH31rrr6UzH5SVpOHNq77e1V8yYMuijKvhSNW7q7gSWbpf3z16eUZ9P2r1q0s5W1JsyXqyuLsmL7pVUH2GZmOb1mdJ7n2y+orG5nkReQ+sX9PV5/4fQjrPBC07ZmkKfrL6k6zvqsvCfcMMzD9edN/5bVWcvGMt/2P3Q3W7P6frCqwKf1d3uOt362U3edP/sfVc++HOR5T64Q5j3axrKcZO8AH/bfq5pNucqpSfr3P+IYe3KYFZ2U7//WRpbkNJsKVe//Hkof19nRXfH+57Ef99nfW+3+n2A7aeSLUqX7n81u0kntJSr3X8nVv7Ty0cUK9z/mDItJLe/kq9v/YO74SzOr1ZX/B1lKqrlPGYC1rCTdNOq6T2gaG0n9T4GuivZ/ZTMLST0v6tl//n7WIZAJagDMZRkSOaLlP4E+/AUok8VKAKxjFTI5c4WOS4BsQipbNew/Zx+LEMtYDfcAsQa57FAA4FPWIJiR4vu/mSVI5n1xANtZgmiGCu+/ghXI5iVhAM+wAtmcln2OTD6PAJDO3aIAxiUfuO2T15bNmXwn+XGmLlr57le+XQx6NeG0jW/cdWlEOkzu8CUHE57S9n6C83ZtSnbtenkvdnzeK6t3HE4moMqbiwAby1mvSTo/mOjpOh8Ijro4yT9VD7Na0wxM8mjFpi5ygyZ4ENB349mrebq958Xl4O7mjwJpHMZWkyTvTXMAC8WmvM18yInsNFmKaozP7YdiQz5pPONjbDRp+n1t/CZA7IHCG0xH3JPLQhNnovGv12VSI9aaTngT68zggoDxW+wxQhN2ajEccDPbzCTXmwKYJTRgf9MBh7PMjLLN8PyuEJrP9Hbg+hx2mVFmKO+D7jWcbzmrzCxlhif4oNB8swznG80qM8wesxN8XGi8BYYAithkhnnW8EKA0HhLDFsAFplpTJ+7KPRdAivMpqtjkZlmsiGAHjLjvWw23RYWmWluMATQV2Y8w08Fr2eRmWaYIYBymfHWA0AJgAEAAAAAAAAAAAAAAAAAAAAAAAAAAAAAAAAAAAAAAAAAAAAAAAAAAAAAAAAAAAAAAAAAAAAAAAAAAAAAAAAAAAAAAAAAAAAAAAAAAAAAAAAAAAAAAAAAAAAAAAAAAAAAAAAAAAAAAAAAAAAAAAAAAAAAAAAAAAAAAAAAAAAAAAAAAAAAAAAAAAAAAAAAAAAAAAAAAAEAAQABAAEAAQABAAEAAQABAAEAAQABAAGAt+n52z9sPvL3mu1/rCy1+4O7rAWA/vRaevr/B7ss1+rPzn0KANrzu8YfHm2h3R8/tRUAqjPzx4f7cU+7LzD2FAAU51ftPzneQwPtvsTP/wEAtRnZfJYDPnmt3Rfp81cAKE3+4bMecUul3Zcpfg8AOnN3R8c83zK0PwFAZeo6POhV+XZfqQoACjPoHEe9pcTua01sBoC+SwDnOuyavnZfbMQ/AaAtO8953Ecr7L5a+d8AoCwnzn3gDePtvtylOwGgKp3Pd+RtD9h9wYvWAkBT+p7/2J9OpxsCgEiuNjn4VLohAIjklyZHn0o3BACRTDM6/DS6IQCI5DGz40+hGwKASF4wvGPPfTcEAJGsi03juhsCgObjT6EbAoB2AI67IQCoB+C2GwKAfgBOuyEAeADAZTcEAB8AOOyGAOAFAHfdEAA8AeCqGwKALwAcdUMA8AaAm24IAP4AcNINAcAjAC66IQD4BMBBNwQAvwBY74Y6AcAvANa7IQB4BsB6NwQAzwDERwcDIGgA1rshAHgGwHo3BADPAFjvhgDgGwDr3RAAPANgvRsCgGcArHdDAPAMgPVuCACeAbDeDQHAMwDWuyEA+AbAejcEAM8A+NoNAcBaakoBEDQAP7shAFiMj90QAGzGw24IAHbjXTcEAMvxrRsCgO141g0BwHr86oYAYD9edUMAcJDmSgAEDcCnbggAbuJNNwQAR9lcAoCgAfjSDQHAWfzohgDgLg2/AEDQALzohgDgNPq7IQC4jfpuCACOo70bUgMgr7hEIm+5BqC9G9IAYMDcTZ/Vt8XZGt3dkDiA4gW1cZaneRIAOkrnmSfiADIfAGfPkENxGHkhHwBnyaTGOJSo7YYkATweBxSt3ZAggJlxUFHaDckBuLE1LABKuyExAGUn49CishsSA/BKHGAUdkNSACraQwSgsBuSArAlDjPquiEhAAPjUKOtGxICMCdYANq6ISEA28IFoKwbkgHQoy0OOfODBzAkDjuKuiEZALcEDkBRNyQDYEroAPR0QzIAFgYPQE03JAPgcQBo6YYAEHg3BIDAuyEASGZdIQDCjnw3BIDAuyEABN4NASDwbggAgXdDAAi8GwJA4N0QAALvhgCgI/WDAUA3BAC6IQDQDQGAbggAdEMAoBsCQIjd0DUAoBsCAN0QAOiGAEA3BAC6IQAEmfS6IQDoTGrdEACUpm0aAAJPOt0QAPQmlW4IAIqTRjcEAM1JoRsCgOq474YAoDvOuyEAaM8jAAg8brshAOiP024IAB7EZTcEAB/isBsCAAAAwH8BAOBNIAD4MxAAXAgCAJeCAaAolEFhhzo47HBDSNjhlrCww02hQYfbwsMOHwwJO3w0LOzw4dCww8fDww4PiAg7PCIm6PCQqLDDY+LCDg+KDDs8Kjbs8LDosMPj4oMOXxgRdvjKGNofAND+AID2BwC0PwCg/QEA7Q8Awmh/ro0AQPsDANofAND+AID2BwC0PwCg/cl6AAvZ/9HBUcAAptD+lEYhA7iF9icKGsAQ2p+wAfRoo/0JGkC0jfYnbABzaH/CBjCQ9idsANEW2p+wAVS0B7n/9YURAL7PK7Q/YQMoO0n7EzSA6MZW2p+gAUQzaX/CBhBWKaym/VEEIJrUSPsTNIBoyCHan6ABRJ1nnqD9CRlAFBUvqKX9CRnAvzNg7qbP6rO3IFbW/igE8J/kFZdI5K3g2h+tAHQffxa1PwBIFYC+9gcAaQJQ2P4AID0AKtsfAKQGQGf7A4C0AChtfwCQEgCt7Q8A0gGgtv0BQCoAVuVHAAgYwPxsOwEASNT+VEYACBiA7vYHAK4BKG9/AOAYgPb2BwBuAahvfwDgFID+9gcADgH40P4AwB2AhvERAAIG4Ef7AwBXADxpfwDgCMCWkggAAQPwpv0BgBMA87P8BADgnGmpjAAQMACv2h8AWAfgV/sDANsAPGt/AGAZgG/tDwDsAvCu/QGATQAetj8AsAjAx/YHAPYAeNn+AMAagJq+EQACBuBp+wMASwAstz85BQDwCoDl9qfgzwMA4BEA2+1Pt7/EAPAIgO32p19tDACPANhuf4YeiwHgEQDb7c9tp2MAeATAdvvz4PcPSQWAJwAstz95z/z35wLACwC225+LN8QA8AiA7fbnZ7tiAHgE4GiF3Ve//HAMAI8A2G5/Rn4TA8AjALbbn9+0xADwCIDtz/48+sMfDwCRmH+Dre32Z3UMAAV5Wqj9KamOAaAhD8m0P333xwBQkV+LtD8VR2MA6Mg1Eu3P+IYYAErSX6D9eeCsX5EHAJEUpt7+5HbwvhMAMvkm5fansKMzDgCZ7Ey3/en5cQwAVbk/1fZnYMdflw4AmRQ3pNj+XHMyBoC2rEyv/ZnUHANAXa5Orf155JynGABSqUmn/clfGQNAZYY3pdH+FL8fA0Bpbm933/702RcDQG1mO29/rqyPAaA4v2912/6MPRUDQHUu3+Sy/ZnaGgNAe0a9cex/B7vMcvvzlNEpBoB4ym6fOuOhyVf3sPtTu6yNARByhsUAAAAAAAAAAAAAAAAAAAAAAAAAAAAAAAAAAAAAAAAAAAAAAAAAAAAAAAAAAAAAAAAAAAAAAAAAAAAAAAAAAAAAAAAAAAAAAAAAAAAAAAAAAAAAAAAAAAAAAAAAAAAAAAAAAAAAAAAAAAAAAAAAAAAAAAAAAAAAAAAAAAAAAAAAAAAAAAAAAAAAAAAAAAAAAAAAAAAAAAAAAAAAAAAAAAAAAAAAAAAAAAAAAAAAAAAAAAAAAACyFsA6ACgBUC4z3stm021hkZnmBkMAfWXGW2E2XR2LzDSTDQH0kBlvidl037HITDPPEECBzHgLDMcrYpMZ5lmzE9wkNN4sQwCj2WSG2WN2go8LjXevIYDlbDKzlBme4INC840xnK8+h11mlBmGJ3ir0Hz9DeeLh7PLjLLN8PyuEJqvU4vhgJvZZSa53vQXbJbUhLWmE97ENpMnZ7fp6R0jNeIG0wn35LLPxJloenbjy6RGfNJ4xMfYZ9L0+9r05DblSc14mzGAeCIbTZaiGuNz+6HYkN3bjIdsHMZOkyTvTfNfroVyY+42n/K78WzVPN3eMz+z8Ui5ORcnGLP9YfZqmoEHEpzYpi5yg94cJ8nGclZrks4PfpvktH4gOGrXpkQCzizvxXrP++f/HYcTndS4SnLaV5PNGje+cdel7Ljj5A5fcjDhKW3vJznwuDhx2j55bdmcyXeSH2fqopXvfpX8fG4VFZt/PCayuVv236xn2IBsTgvfb1XBCmTzkvTblu3sQDRDpQHczA4k8778Xy6fsgXBjJQHcCtbkMsODVeu9rEHsYzVcPVqDHuQytZIRdaxCZmcuUIHgD4N7EIki7VUGHPZhUSOdNUCIH8/2xDIBD0t5pXNrCP1vKipx57GPtJObVdNAKK1bCTdNA7SdStLyUF2kmru03Yz02D+Fkwzq/XdzjbmDGtJLe/kK7yhsbKdxaSUjy5WeUvrbDaT0h8Alyi9qfkJdpNGvihVe1v7PLbjPvt7K/5gwz2tLMhxdnRX/dGWWxtZkdNsKlT+4aYRx1iSw6zopP7jbb2qWZOrnJrkwwcc8x5tY1VOsndA5EdG1bMsB3n+osiXdHuOq4K2U3dd5FOG7mZlNnO6qiDyK3nTv2Vt1rKxLPIvJVU8PMBK2jf4+oy9wulHWN+Fpm3NoMjfFFRW83bwQlK/uH/keUqrDrDHDN/5rRmdF2VDrlq0k5Ioab5cXZlN37ZVNG7pbu4aNH3X9/nrU8qj7EtO71H3L11fvauu/hRL/mlaThzau+3tVfMmDBK84vcvieDydOLVVcEAAAAASUVORK5CYII=;" vertex="1" parent="1">
          <mxGeometry x="1294.5" y="322.66999999999996" width="20" height="20" as="geometry" />
        </mxCell>
        <mxCell id="iHsdo4Bu1vToOxYBje5i-177" value="" style="html=1;verticalLabelPosition=bottom;align=center;labelBackgroundColor=#ffffff;verticalAlign=top;strokeWidth=2;strokeColor=#000000;shadow=0;dashed=0;shape=mxgraph.ios7.icons.message;sketch=0;fillStyle=auto;fontFamily=Helvetica;fontSize=12;fontColor=#000000;fillColor=#FFFFFF;" vertex="1" parent="1">
          <mxGeometry x="1595" y="128" width="121" height="37" as="geometry" />
        </mxCell>
        <mxCell id="iHsdo4Bu1vToOxYBje5i-178" value="&lt;span style=&quot;font-size: 12px;&quot;&gt;Hallo, Selamat pagi&lt;/span&gt;" style="text;html=1;strokeColor=none;fillColor=none;align=center;verticalAlign=middle;whiteSpace=wrap;rounded=0;labelBackgroundColor=none;sketch=0;fillStyle=auto;strokeWidth=2;fontFamily=Helvetica;fontSize=11;fontColor=#000000;" vertex="1" parent="1">
          <mxGeometry x="1601.13" y="128" width="114.87" height="30" as="geometry" />
        </mxCell>
      </root>
    </mxGraphModel>
  </diagram>
</mxfile>
